<?xml version="1.0" encoding="UTF-8"?><svg id="Layer_1" xmlns="http://www.w3.org/2000/svg" viewBox="0 0 7409.56 4220.56"><defs><style>.cls-1,.cls-2,.cls-3{font-family:Georgia, Georgia;}.cls-1,.cls-2,.cls-3,.cls-4{isolation:isolate;}.cls-1,.cls-5{font-size:80px;}.cls-6{stroke-width:6px;}.cls-6,.cls-7,.cls-8,.cls-9,.cls-10,.cls-11,.cls-12,.cls-13,.cls-14,.cls-15,.cls-16,.cls-17{stroke-miterlimit:10;}.cls-6,.cls-7,.cls-8,.cls-9,.cls-10,.cls-11,.cls-12,.cls-13,.cls-14,.cls-15,.cls-17{stroke:#000;}.cls-6,.cls-16,.cls-17{fill:none;}.cls-2{font-size:108.38px;}.cls-5{fill:#6b6b6b;font-family:Arial-ItalicMT, Arial;font-style:italic;}.cls-7{fill:#e0a47c;}.cls-7,.cls-8,.cls-9,.cls-10,.cls-11,.cls-12,.cls-13,.cls-14,.cls-15{stroke-width:10px;}.cls-8{fill:#dd7e64;}.cls-9{fill:#bfa993;}.cls-10{fill:#a37e9b;}.cls-11{fill:#a37272;}.cls-12{fill:#a38171;}.cls-13{fill:#bc5858;}.cls-14{fill:#db8392;}.cls-15{fill:#deb5ae;}.cls-18{font-family:Georgia-Bold, Georgia;font-size:250px;font-weight:700;}.cls-3{font-size:96.96px;}.cls-16{stroke:red;stroke-width:5px;}.cls-19{letter-spacing:-.07em;}.cls-4{font-size:100px;}.cls-4,.cls-20{font-family:ArialMT, Arial;}.cls-21{letter-spacing:0em;}.cls-20{font-size:70px;}.cls-17{stroke-width:7px;}</style></defs><g id="forcedevictions-01"><g id="Artboard1"><g id="Graph1-Municipalities"><g id="LegendMunicipalities"><g id="x_axis"><line id="X_axis" class="cls-17" x1="517.37" y1="3782.51" x2="2933.17" y2="3782.51"/><text id="Destruction_year" class="cls-4" transform="translate(1342.19 3965.25) scale(.91 1)"><tspan x="0" y="0">Municipalities</tspan></text><text class="cls-2" transform="translate(739.21 573.96) rotate(-90) scale(.87 1)"><tspan x="0" y="0">Cocody</tspan></text><text class="cls-2" transform="translate(1014.25 1986.85) rotate(-90) scale(.87 1)"><tspan x="0" y="0">Port-Bouet</tspan></text><text class="cls-2" transform="translate(1261.7 2726.6) rotate(-90) scale(.87 1)"><tspan x="0" y="0">Adjame</tspan></text><text class="cls-2" transform="translate(1501.25 2956.28) rotate(-90) scale(.87 1)"><tspan x="0" y="0">Koumassi</tspan></text><text class="cls-2" transform="translate(1772.3 2949.17) rotate(-90) scale(.87 1)"><tspan x="0" y="0">Marcory</tspan></text><text class="cls-2" transform="translate(2015.44 2949.18) rotate(-90) scale(.87 1)"><tspan x="0" y="0">Treichville</tspan></text><text class="cls-2" transform="translate(2255.92 2949.18) rotate(-90) scale(.87 1)"><tspan x="0" y="0">Abobo</tspan></text><text class="cls-2" transform="translate(2538.25 3434.63) rotate(-90) scale(.87 1)"><tspan x="0" y="0">Yopougon</tspan></text><text class="cls-2" transform="translate(2802.35 3434.63) rotate(-90) scale(.87 1)"><tspan x="0" y="0">Attecoube</tspan></text></g><g id="y_axis"><line id="Y_axis" class="cls-17" x1="517.37" y1="3783.46" x2="517.37" y2="616.15"/><text id="Destruction_year-2" class="cls-4" transform="translate(354.05 3781.3) rotate(-90) scale(.91 1)"><tspan x="0" y="0">Number of neighborhoods* destroyed</tspan></text><text class="cls-3" transform="translate(436.36 3641.93) scale(.91 1)"><tspan x="0" y="0">1</tspan></text><line id="_Line_1" class="cls-6" x1="558.68" y1="3635.02" x2="494.58" y2="3635.02"/><text class="cls-3" transform="translate(430.48 3422.35) scale(.91 1)"><tspan x="0" y="0">2</tspan></text><line id="_Line_2" class="cls-6" x1="558.68" y1="3394.97" x2="494.58" y2="3394.97"/><text class="cls-3" transform="translate(427.54 3175.85) scale(.91 1)"><tspan x="0" y="0">3</tspan></text><line id="_Line_3" class="cls-6" x1="558.68" y1="3154.92" x2="494.58" y2="3154.92"/><line id="_Line_4" class="cls-6" x1="558.68" y1="2914.86" x2="494.58" y2="2914.86"/><line id="_Line_1-2" class="cls-6" x1="559.31" y1="2674.81" x2="495.21" y2="2674.81"/><line id="_Line_2-2" class="cls-6" x1="559.31" y1="2434.76" x2="495.21" y2="2434.76"/><line id="_Line_3-2" class="cls-6" x1="559.31" y1="2194.7" x2="495.21" y2="2194.7"/><line id="_Line_4-2" class="cls-6" x1="559.31" y1="1954.65" x2="495.21" y2="1954.65"/><line id="_Line_1-3" class="cls-6" x1="559.31" y1="1714.6" x2="495.21" y2="1714.6"/><line id="_Line_2-3" class="cls-6" x1="559.31" y1="1474.54" x2="495.21" y2="1474.54"/><line id="_Line_3-3" class="cls-6" x1="559.31" y1="1234.49" x2="495.21" y2="1234.49"/><line id="_Line_4-3" class="cls-6" x1="559.31" y1="994.44" x2="495.21" y2="994.44"/><line id="_Line_4-4" class="cls-6" x1="559.31" y1="754.38" x2="495.21" y2="754.38"/><text class="cls-3" transform="translate(434.7 2938.56) scale(.91 1)"><tspan x="0" y="0">4</tspan></text><text class="cls-3" transform="translate(431.39 2693.11) scale(.91 1)"><tspan x="0" y="0">5</tspan></text><text class="cls-3" transform="translate(430.29 2460.33) scale(.91 1)"><tspan x="0" y="0">6</tspan></text><text class="cls-3" transform="translate(433.96 2219.31) scale(.91 1)"><tspan x="0" y="0">7</tspan></text><text class="cls-3" transform="translate(426.81 1972.72) scale(.91 1)"><tspan x="0" y="0">8</tspan></text><text class="cls-3" transform="translate(425.7 1739.94) scale(.91 1)"><tspan x="0" y="0">9</tspan></text><text class="cls-3" transform="translate(392.45 1500.47) scale(.91 1)"><tspan x="0" y="0">10</tspan></text><text class="cls-3" transform="translate(398.13 1261.64) scale(.91 1)"><tspan x="0" y="0">11</tspan></text><text class="cls-3" transform="translate(395.29 1024.66) scale(.91 1)"><tspan x="0" y="0">12</tspan></text><text class="cls-3" transform="translate(400.97 785.82) scale(.91 1)"><tspan x="0" y="0">13</tspan></text></g></g><g id="HousesMunicipalities"><g id="Attecoube"><path id="Attecoube-2" class="cls-12" d="M2673.84,3540.06c43.93-31.88,84.25-69.96,102.03-58.52,29.93,19.26,35.83,25.19,42.81,29.27,0,0,.37-8.15,2.06-23.99-22.85-13.32,43.18-14.52,30.48-.44-8.44,9.36-4.82,33.59-5.93,38.28-.93,3.94,16.19,15.51,26.52,25.14,9.26,10.28,10.97,6.98,9.14,19.96-.99,7.04-12.38,5.3-18.32,1.77,1.77,35.3,2.89,106.76-.83,111.52-6.54,8.38-28.01,.73-73.37,.17-7.03-.09,2.68-60.89,1.7-80.27-.53-10.57-44.17-9.32-44.32,.47-.29,18.5,.42,64.17-1.2,82.6-20.29-1.99-66.11,10.22-70.46,3.57-8.65-13.23,16.78-131.98,2.65-125.77-27.92,12.27-25.22-10.52-2.96-23.76"/></g><g id="Yopougon"><path id="Yopougon-2" class="cls-10" d="M2417.27,3540.06c43.93-31.88,84.25-69.96,102.03-58.52,29.93,19.26,35.83,25.19,42.81,29.27,0,0,.37-8.15,2.06-23.99-22.85-13.32,43.18-14.52,30.48-.44-8.44,9.36-4.82,33.59-5.93,38.28-.93,3.94,16.19,15.51,26.52,25.14,9.26,10.28,10.97,6.98,9.14,19.96-.99,7.04-12.38,5.3-18.32,1.77,1.77,35.3,2.88,106.76-.83,111.52-6.54,8.38-28.01,.73-73.37,.17-7.03-.09,2.68-60.89,1.7-80.27-.53-10.57-44.17-9.32-44.32,.47-.29,18.5,.42,64.17-1.2,82.6-20.29-1.99-66.11,10.22-70.46,3.57-8.65-13.23,16.78-131.98,2.65-125.77-27.92,12.27-25.22-10.52-2.96-23.76"/></g><g id="Abobo"><path id="Abobo-2" class="cls-13" d="M2160.7,3310.59c43.93-31.88,84.25-69.96,102.03-58.52,29.93,19.26,35.83,25.19,42.81,29.27,0,0,.37-8.15,2.06-23.99-22.85-13.32,43.18-14.52,30.48-.44-8.44,9.36-4.82,33.59-5.93,38.28-.93,3.94,16.19,15.51,26.52,25.14,9.26,10.27,10.97,6.98,9.14,19.96-.99,7.04-12.38,5.3-18.32,1.77,1.77,35.3,2.88,106.76-.83,111.52-6.54,8.38-28.01,.73-73.37,.17-7.03-.09,2.68-60.89,1.7-80.27-.53-10.57-44.17-9.32-44.32,.47-.29,18.5,.42,64.17-1.2,82.6-20.29-1.99-66.11,10.22-70.46,3.57-8.65-13.23,16.78-131.97,2.65-125.77-27.92,12.27-25.22-10.52-2.96-23.76"/><path id="Abobo-3" class="cls-13" d="M2160.7,3060.45c43.93-31.88,84.25-69.96,102.03-58.52,29.93,19.26,35.83,25.19,42.81,29.27,0,0,.37-8.15,2.06-23.99-22.85-13.32,43.18-14.52,30.48-.44-8.44,9.36-4.82,33.59-5.93,38.28-.93,3.94,16.19,15.51,26.52,25.14,9.26,10.27,10.97,6.98,9.14,19.96-.99,7.04-12.38,5.3-18.32,1.77,1.77,35.3,2.88,106.76-.83,111.52-6.54,8.38-28.01,.73-73.37,.17-7.03-.09,2.68-60.89,1.7-80.27-.53-10.57-44.17-9.32-44.32,.47-.29,18.5,.42,64.17-1.2,82.6-20.29-1.99-66.11,10.22-70.46,3.57-8.65-13.23,16.78-131.97,2.65-125.77-27.92,12.27-25.22-10.52-2.96-23.76"/><path id="Abobo-4" class="cls-13" d="M2160.7,3545.09c43.93-31.88,84.25-69.96,102.03-58.52,29.93,19.26,35.83,25.19,42.81,29.27,0,0,.37-8.15,2.06-23.99-22.85-13.32,43.18-14.52,30.48-.44-8.44,9.36-4.82,33.59-5.93,38.28-.93,3.94,16.19,15.51,26.52,25.14,9.26,10.28,10.97,6.98,9.14,19.96-.99,7.04-12.38,5.3-18.32,1.77,1.77,35.3,2.88,106.76-.83,111.52-6.54,8.38-28.01,.73-73.37,.17-7.03-.09,2.68-60.89,1.7-80.27-.53-10.57-44.17-9.32-44.32,.47-.29,18.5,.42,64.17-1.2,82.6-20.29-1.99-66.11,10.22-70.46,3.57-8.65-13.23,16.78-131.97,2.65-125.77-27.92,12.27-25.22-10.52-2.96-23.76"/></g><g id="Treichville"><path id="Treichville-2" class="cls-14" d="M1904.13,3313.39c43.93-31.88,84.25-69.96,102.03-58.52,29.93,19.26,35.83,25.19,42.81,29.27,0,0,.37-8.15,2.06-23.99-22.85-13.32,43.18-14.52,30.48-.44-8.44,9.36-4.82,33.59-5.93,38.28-.93,3.94,16.19,15.51,26.52,25.14,9.26,10.28,10.97,6.98,9.14,19.96-.99,7.04-12.38,5.3-18.32,1.77,1.77,35.3,2.89,106.76-.83,111.52-6.54,8.38-28.01,.73-73.37,.17-7.03-.09,2.68-60.89,1.7-80.27-.53-10.57-44.17-9.32-44.32,.47-.29,18.5,.42,64.17-1.2,82.6-20.29-1.99-66.11,10.22-70.46,3.57-8.65-13.23,16.78-131.98,2.65-125.77-27.92,12.27-25.22-10.52-2.96-23.76"/><path id="Treichville-3" class="cls-14" d="M1904.13,3063.25c43.93-31.88,84.25-69.96,102.03-58.52,29.93,19.26,35.83,25.19,42.81,29.27,0,0,.37-8.15,2.06-23.99-22.85-13.32,43.18-14.52,30.48-.44-8.44,9.36-4.82,33.59-5.93,38.28-.93,3.94,16.19,15.51,26.52,25.14,9.26,10.28,10.97,6.98,9.14,19.96-.99,7.04-12.38,5.3-18.32,1.77,1.77,35.3,2.89,106.75-.83,111.52-6.54,8.38-28.01,.73-73.37,.17-7.03-.09,2.68-60.89,1.7-80.27-.53-10.57-44.17-9.32-44.32,.47-.29,18.5,.42,64.17-1.2,82.6-20.29-1.99-66.11,10.22-70.46,3.57-8.65-13.23,16.78-131.98,2.65-125.77-27.92,12.27-25.22-10.52-2.96-23.76"/><path id="Treichville-4" class="cls-14" d="M1904.13,3547.88c43.93-31.88,84.25-69.96,102.03-58.52,29.93,19.26,35.83,25.19,42.81,29.27,0,0,.37-8.15,2.06-23.99-22.85-13.32,43.18-14.52,30.48-.44-8.44,9.36-4.82,33.59-5.93,38.28-.93,3.94,16.19,15.51,26.52,25.14,9.26,10.27,10.97,6.98,9.14,19.96-.99,7.04-12.38,5.3-18.32,1.77,1.77,35.3,2.89,106.76-.83,111.52-6.54,8.38-28.01,.73-73.37,.17-7.03-.09,2.68-60.89,1.7-80.27-.53-10.57-44.17-9.32-44.32,.47-.29,18.5,.42,64.17-1.2,82.6-20.29-1.99-66.11,10.22-70.46,3.57-8.65-13.23,16.78-131.97,2.65-125.77-27.92,12.27-25.22-10.52-2.96-23.76"/></g><g id="Marcory"><path id="Marcory-2" class="cls-9" d="M1647.56,3313.39c43.93-31.88,84.25-69.96,102.03-58.52,29.93,19.26,35.83,25.19,42.81,29.27,0,0,.37-8.15,2.06-23.99-22.85-13.32,43.18-14.52,30.48-.44-8.44,9.36-4.82,33.59-5.93,38.28-.93,3.94,16.19,15.51,26.52,25.14,9.27,10.28,10.97,6.98,9.14,19.96-.99,7.04-12.38,5.3-18.32,1.77,1.77,35.3,2.88,106.76-.83,111.52-6.54,8.38-28.01,.73-73.37,.17-7.03-.09,2.68-60.89,1.7-80.27-.53-10.57-44.17-9.32-44.32,.47-.29,18.5,.42,64.17-1.2,82.6-20.29-1.99-66.11,10.22-70.46,3.57-8.65-13.23,16.78-131.98,2.65-125.77-27.92,12.27-25.22-10.52-2.96-23.76"/><path id="Marcory-3" class="cls-9" d="M1647.56,3063.25c43.93-31.88,84.25-69.96,102.03-58.52,29.93,19.26,35.83,25.19,42.81,29.27,0,0,.37-8.15,2.06-23.99-22.85-13.32,43.18-14.52,30.48-.44-8.44,9.36-4.82,33.59-5.93,38.28-.93,3.94,16.19,15.51,26.52,25.14,9.27,10.28,10.97,6.98,9.14,19.96-.99,7.04-12.38,5.3-18.32,1.77,1.77,35.3,2.88,106.75-.83,111.52-6.54,8.38-28.01,.73-73.37,.17-7.03-.09,2.68-60.89,1.7-80.27-.53-10.57-44.17-9.32-44.32,.47-.29,18.5,.42,64.17-1.2,82.6-20.29-1.99-66.11,10.22-70.46,3.57-8.65-13.23,16.78-131.98,2.65-125.77-27.92,12.27-25.22-10.52-2.96-23.76"/><path id="Marcory-4" class="cls-9" d="M1647.56,3547.88c43.93-31.88,84.25-69.96,102.03-58.52,29.93,19.26,35.83,25.19,42.81,29.27,0,0,.37-8.15,2.06-23.99-22.85-13.32,43.18-14.52,30.48-.44-8.44,9.36-4.82,33.59-5.93,38.28-.93,3.94,16.19,15.51,26.52,25.14,9.27,10.27,10.97,6.98,9.14,19.96-.99,7.04-12.38,5.3-18.32,1.77,1.77,35.3,2.88,106.76-.83,111.52-6.54,8.38-28.01,.73-73.37,.17-7.03-.09,2.68-60.89,1.7-80.27-.53-10.57-44.17-9.32-44.32,.47-.29,18.5,.42,64.17-1.2,82.6-20.29-1.99-66.11,10.22-70.46,3.57-8.65-13.23,16.78-131.97,2.65-125.77-27.92,12.27-25.22-10.52-2.96-23.76"/></g><g id="Koumassi"><path id="Koumassi-2" class="cls-7" d="M1390.99,3313.39c43.93-31.88,84.25-69.96,102.03-58.52,29.93,19.26,35.83,25.19,42.81,29.27,0,0,.37-8.15,2.06-23.99-22.85-13.32,43.18-14.52,30.48-.44-8.44,9.36-4.82,33.59-5.93,38.28-.93,3.94,16.19,15.51,26.52,25.14,9.27,10.28,10.97,6.98,9.14,19.96-.99,7.04-12.38,5.3-18.32,1.77,1.77,35.3,2.88,106.76-.83,111.52-6.54,8.38-28.01,.73-73.37,.17-7.03-.09,2.68-60.89,1.7-80.27-.53-10.57-44.17-9.32-44.32,.47-.29,18.5,.42,64.17-1.2,82.6-20.29-1.99-66.11,10.22-70.46,3.57-8.65-13.23,16.78-131.98,2.65-125.77-27.92,12.27-25.22-10.52-2.96-23.76"/><path id="Koumassi-3" class="cls-7" d="M1390.99,3063.25c43.93-31.88,84.25-69.96,102.03-58.52,29.93,19.26,35.83,25.19,42.81,29.27,0,0,.37-8.15,2.06-23.99-22.85-13.32,43.18-14.52,30.48-.44-8.44,9.36-4.82,33.59-5.93,38.28-.93,3.94,16.19,15.51,26.52,25.14,9.27,10.28,10.97,6.98,9.14,19.96-.99,7.04-12.38,5.3-18.32,1.77,1.77,35.3,2.88,106.75-.83,111.52-6.54,8.38-28.01,.73-73.37,.17-7.03-.09,2.68-60.89,1.7-80.27-.53-10.57-44.17-9.32-44.32,.47-.29,18.5,.42,64.17-1.2,82.6-20.29-1.99-66.11,10.22-70.46,3.57-8.65-13.23,16.78-131.98,2.65-125.77-27.92,12.27-25.22-10.52-2.96-23.76"/><path id="Koumassi-4" class="cls-7" d="M1390.99,3547.88c43.93-31.88,84.25-69.96,102.03-58.52,29.93,19.26,35.83,25.19,42.81,29.27,0,0,.37-8.15,2.06-23.99-22.85-13.32,43.18-14.52,30.48-.44-8.44,9.36-4.82,33.59-5.93,38.28-.93,3.94,16.19,15.51,26.52,25.14,9.27,10.27,10.97,6.98,9.14,19.96-.99,7.04-12.38,5.3-18.32,1.77,1.77,35.3,2.88,106.76-.83,111.52-6.54,8.38-28.01,.73-73.37,.17-7.03-.09,2.68-60.89,1.7-80.27-.53-10.57-44.17-9.32-44.32,.47-.29,18.5,.42,64.17-1.2,82.6-20.29-1.99-66.11,10.22-70.46,3.57-8.65-13.23,16.78-131.97,2.65-125.77-27.92,12.27-25.22-10.52-2.96-23.76"/></g><g id="Adjame"><path id="Adjame-2" class="cls-8" d="M1134.42,3305.57c43.93-31.88,84.25-69.96,102.03-58.52,29.93,19.26,35.83,25.19,42.81,29.27,0,0,.37-8.15,2.06-23.99-22.85-13.32,43.18-14.52,30.48-.44-8.44,9.36-4.82,33.59-5.93,38.28-.93,3.94,16.19,15.51,26.52,25.14,9.27,10.27,10.97,6.98,9.14,19.96-.99,7.04-12.38,5.3-18.32,1.77,1.77,35.3,2.88,106.76-.83,111.52-6.54,8.38-28.01,.73-73.37,.17-7.03-.09,2.68-60.89,1.7-80.27-.53-10.57-44.17-9.32-44.32,.47-.29,18.5,.42,64.17-1.2,82.6-20.29-1.99-66.11,10.22-70.46,3.57-8.65-13.23,16.78-131.97,2.65-125.77-27.92,12.27-25.22-10.52-2.96-23.76"/><path id="Adjame-3" class="cls-8" d="M1134.42,3055.42c43.93-31.88,84.25-69.96,102.03-58.52,29.93,19.26,35.83,25.19,42.81,29.27,0,0,.37-8.15,2.06-23.99-22.85-13.32,43.18-14.52,30.48-.44-8.44,9.36-4.82,33.59-5.93,38.28-.93,3.94,16.19,15.51,26.52,25.14,9.27,10.28,10.97,6.98,9.14,19.96-.99,7.04-12.38,5.3-18.32,1.77,1.77,35.3,2.88,106.76-.83,111.52-6.54,8.38-28.01,.73-73.37,.17-7.03-.09,2.68-60.89,1.7-80.27-.53-10.57-44.17-9.32-44.32,.47-.29,18.5,.42,64.17-1.2,82.6-20.29-1.99-66.11,10.22-70.46,3.57-8.65-13.23,16.78-131.97,2.65-125.77-27.92,12.27-25.22-10.52-2.96-23.76"/><path id="Adjame-4" class="cls-8" d="M1134.42,2820.93c43.93-31.88,84.25-69.96,102.03-58.52,29.93,19.26,35.83,25.19,42.81,29.27,0,0,.37-8.15,2.06-23.99-22.85-13.32,43.18-14.52,30.48-.44-8.44,9.36-4.82,33.59-5.93,38.28-.93,3.94,16.19,15.51,26.52,25.14,9.27,10.27,10.97,6.98,9.14,19.96-.99,7.04-12.38,5.3-18.32,1.77,1.77,35.3,2.88,106.76-.83,111.52-6.54,8.38-28.01,.73-73.37,.17-7.03-.09,2.68-60.89,1.7-80.27-.53-10.57-44.17-9.32-44.32,.47-.29,18.5,.42,64.17-1.2,82.6-20.29-1.99-66.11,10.22-70.46,3.57-8.65-13.23,16.78-131.97,2.65-125.77-27.92,12.27-25.22-10.52-2.96-23.76"/><path id="Adjame-5" class="cls-8" d="M1134.42,3540.06c43.93-31.88,84.25-69.96,102.03-58.52,29.93,19.26,35.83,25.19,42.81,29.27,0,0,.37-8.15,2.06-23.99-22.85-13.32,43.18-14.52,30.48-.44-8.44,9.36-4.82,33.59-5.93,38.28-.93,3.94,16.19,15.51,26.52,25.14,9.27,10.28,10.97,6.98,9.14,19.96-.99,7.04-12.38,5.3-18.32,1.77,1.77,35.3,2.88,106.76-.83,111.52-6.54,8.38-28.01,.73-73.37,.17-7.03-.09,2.68-60.89,1.7-80.27-.53-10.57-44.17-9.32-44.32,.47-.29,18.5,.42,64.17-1.2,82.6-20.29-1.99-66.11,10.22-70.46,3.57-8.65-13.23,16.78-131.98,2.65-125.77-27.92,12.27-25.22-10.52-2.96-23.76"/></g><g id="Port_Bouet"><path id="Port_Bouet-2" class="cls-15" d="M877.84,3310.2c43.93-31.88,84.25-69.96,102.03-58.52,29.93,19.26,35.83,25.19,42.81,29.27,0,0,.37-8.15,2.07-23.99-22.85-13.32,43.18-14.52,30.48-.44-8.44,9.36-4.82,33.59-5.93,38.28-.93,3.94,16.19,15.51,26.52,25.14,9.27,10.27,10.97,6.98,9.14,19.96-.99,7.04-12.38,5.3-18.32,1.77,1.77,35.3,2.88,106.76-.83,111.52-6.54,8.38-28.01,.73-73.37,.17-7.03-.09,2.67-60.89,1.7-80.27-.53-10.57-44.17-9.32-44.32,.47-.29,18.5,.42,64.17-1.2,82.6-20.29-1.99-66.11,10.22-70.46,3.57-8.65-13.23,16.78-131.97,2.65-125.77-27.92,12.27-25.22-10.52-2.96-23.76"/><path id="Port_Bouet-3" class="cls-15" d="M877.84,3060.06c43.93-31.88,84.25-69.96,102.03-58.52,29.93,19.26,35.83,25.19,42.81,29.27,0,0,.37-8.15,2.07-23.99-22.85-13.32,43.18-14.52,30.48-.44-8.44,9.36-4.82,33.59-5.93,38.28-.93,3.94,16.19,15.51,26.52,25.14,9.27,10.27,10.97,6.98,9.14,19.96-.99,7.04-12.38,5.3-18.32,1.77,1.77,35.3,2.88,106.76-.83,111.52-6.54,8.38-28.01,.73-73.37,.17-7.03-.09,2.67-60.89,1.7-80.27-.53-10.57-44.17-9.32-44.32,.47-.29,18.5,.42,64.17-1.2,82.6-20.29-1.99-66.11,10.22-70.46,3.57-8.65-13.23,16.78-131.97,2.65-125.77-27.92,12.27-25.22-10.52-2.96-23.76"/><path id="Port_Bouet-4" class="cls-15" d="M877.84,2825.56c43.93-31.88,84.25-69.96,102.03-58.52,29.93,19.26,35.83,25.19,42.81,29.27,0,0,.37-8.15,2.07-23.99-22.85-13.32,43.18-14.52,30.48-.44-8.44,9.36-4.82,33.59-5.93,38.28-.93,3.94,16.19,15.51,26.52,25.14,9.27,10.27,10.97,6.98,9.14,19.96-.99,7.04-12.38,5.3-18.32,1.77,1.77,35.3,2.88,106.76-.83,111.52-6.54,8.38-28.01,.73-73.37,.17-7.03-.09,2.67-60.89,1.7-80.27-.53-10.57-44.17-9.32-44.32,.47-.29,18.5,.42,64.17-1.2,82.6-20.29-1.99-66.11,10.22-70.46,3.57-8.65-13.23,16.78-131.97,2.65-125.77-27.92,12.27-25.22-10.52-2.96-23.76"/><path id="Port_Bouet-5" class="cls-15" d="M877.84,3544.69c43.93-31.88,84.25-69.96,102.03-58.52,29.93,19.26,35.83,25.19,42.81,29.27,0,0,.37-8.15,2.07-23.99-22.85-13.32,43.18-14.52,30.48-.44-8.44,9.36-4.82,33.59-5.93,38.28-.93,3.94,16.19,15.51,26.52,25.14,9.27,10.28,10.97,6.98,9.14,19.96-.99,7.04-12.38,5.3-18.32,1.77,1.77,35.3,2.88,106.76-.83,111.52-6.54,8.38-28.01,.73-73.37,.17-7.03-.09,2.67-60.89,1.7-80.27-.53-10.57-44.17-9.32-44.32,.47-.29,18.5,.42,64.17-1.2,82.6-20.29-1.99-66.11,10.22-70.46,3.57-8.65-13.23,16.78-131.97,2.65-125.77-27.92,12.27-25.22-10.52-2.96-23.76"/><path id="Port_Bouet-6" class="cls-15" d="M877.84,2356.57c43.93-31.88,84.25-69.96,102.03-58.52,29.93,19.26,35.83,25.19,42.81,29.27,0,0,.37-8.15,2.07-23.99-22.85-13.32,43.18-14.52,30.48-.44-8.44,9.36-4.82,33.59-5.93,38.28-.93,3.94,16.19,15.51,26.52,25.14,9.27,10.27,10.97,6.98,9.14,19.96-.99,7.04-12.38,5.3-18.32,1.77,1.77,35.3,2.88,106.76-.83,111.52-6.54,8.38-28.01,.73-73.37,.17-7.03-.09,2.67-60.89,1.7-80.27-.53-10.57-44.17-9.32-44.32,.47-.29,18.5,.42,64.17-1.2,82.6-20.29-1.99-66.11,10.22-70.46,3.57-8.65-13.23,16.78-131.97,2.65-125.77-27.92,12.26-25.22-10.52-2.96-23.76"/><path id="Port_Bouet-7" class="cls-15" d="M877.84,2106.43c43.93-31.88,84.25-69.95,102.03-58.52,29.93,19.26,35.83,25.18,42.81,29.27,0,0,.37-8.15,2.07-23.99-22.85-13.32,43.18-14.52,30.48-.44-8.44,9.36-4.82,33.59-5.93,38.28-.93,3.94,16.19,15.51,26.52,25.14,9.27,10.28,10.97,6.98,9.14,19.96-.99,7.04-12.38,5.3-18.32,1.77,1.77,35.3,2.88,106.76-.83,111.52-6.54,8.38-28.01,.73-73.37,.17-7.03-.09,2.67-60.89,1.7-80.27-.53-10.57-44.17-9.32-44.32,.47-.29,18.5,.42,64.17-1.2,82.6-20.29-1.99-66.11,10.22-70.46,3.57-8.65-13.23,16.78-131.97,2.65-125.77-27.92,12.27-25.22-10.52-2.96-23.76"/><path id="Port_Bouet-8" class="cls-15" d="M877.84,2591.07c43.93-31.88,84.25-69.96,102.03-58.52,29.93,19.26,35.83,25.19,42.81,29.27,0,0,.37-8.15,2.07-23.99-22.85-13.32,43.18-14.52,30.48-.44-8.44,9.36-4.82,33.59-5.93,38.28-.93,3.94,16.19,15.51,26.52,25.14,9.27,10.28,10.97,6.98,9.14,19.96-.99,7.04-12.38,5.3-18.32,1.77,1.77,35.3,2.88,106.75-.83,111.52-6.54,8.38-28.01,.73-73.37,.17-7.03-.09,2.67-60.89,1.7-80.27-.53-10.57-44.17-9.32-44.32,.47-.29,18.5,.42,64.17-1.2,82.6-20.29-1.99-66.11,10.22-70.46,3.57-8.65-13.23,16.78-131.98,2.65-125.77-27.92,12.27-25.22-10.52-2.96-23.76"/></g><g id="Cocody"><path id="Cocody-2" class="cls-11" d="M621.35,3310.2c43.93-31.88,84.25-69.96,102.03-58.52,29.93,19.26,35.83,25.19,42.81,29.27,0,0,.37-8.15,2.07-23.99-22.85-13.32,43.18-14.52,30.48-.44-8.44,9.36-4.82,33.59-5.93,38.28-.93,3.94,16.19,15.51,26.52,25.14,9.27,10.27,10.97,6.98,9.14,19.96-.99,7.04-12.38,5.3-18.32,1.77,1.77,35.3,2.88,106.76-.84,111.52-6.54,8.38-28.01,.73-73.37,.17-7.03-.09,2.67-60.89,1.7-80.27-.53-10.57-44.17-9.32-44.32,.47-.29,18.5,.42,64.17-1.2,82.6-20.29-1.99-66.11,10.22-70.46,3.57-8.65-13.23,16.78-131.97,2.65-125.77-27.92,12.27-25.22-10.52-2.96-23.76"/><path id="Cocody-3" class="cls-11" d="M621.35,3060.06c43.93-31.88,84.25-69.96,102.03-58.52,29.93,19.26,35.83,25.19,42.81,29.27,0,0,.37-8.15,2.07-23.99-22.85-13.32,43.18-14.52,30.48-.44-8.44,9.36-4.82,33.59-5.93,38.28-.93,3.94,16.19,15.51,26.52,25.14,9.27,10.27,10.97,6.98,9.14,19.96-.99,7.04-12.38,5.3-18.32,1.77,1.77,35.3,2.88,106.76-.84,111.52-6.54,8.38-28.01,.73-73.37,.17-7.03-.09,2.67-60.89,1.7-80.27-.53-10.57-44.17-9.32-44.32,.47-.29,18.5,.42,64.17-1.2,82.6-20.29-1.99-66.11,10.22-70.46,3.57-8.65-13.23,16.78-131.97,2.65-125.77-27.92,12.27-25.22-10.52-2.96-23.76"/><path id="Cocody-4" class="cls-11" d="M621.35,2825.56c43.93-31.88,84.25-69.96,102.03-58.52,29.93,19.26,35.83,25.19,42.81,29.27,0,0,.37-8.15,2.07-23.99-22.85-13.32,43.18-14.52,30.48-.44-8.44,9.36-4.82,33.59-5.93,38.28-.93,3.94,16.19,15.51,26.52,25.14,9.27,10.27,10.97,6.98,9.14,19.96-.99,7.04-12.38,5.3-18.32,1.77,1.77,35.3,2.88,106.76-.84,111.52-6.54,8.38-28.01,.73-73.37,.17-7.03-.09,2.67-60.89,1.7-80.27-.53-10.57-44.17-9.32-44.32,.47-.29,18.5,.42,64.17-1.2,82.6-20.29-1.99-66.11,10.22-70.46,3.57-8.65-13.23,16.78-131.97,2.65-125.77-27.92,12.27-25.22-10.52-2.96-23.76"/><path id="Cocody-5" class="cls-11" d="M621.35,3544.69c43.93-31.88,84.25-69.96,102.03-58.52,29.93,19.26,35.83,25.19,42.81,29.27,0,0,.37-8.15,2.07-23.99-22.85-13.32,43.18-14.52,30.48-.44-8.44,9.36-4.82,33.59-5.93,38.28-.93,3.94,16.19,15.51,26.52,25.14,9.27,10.28,10.97,6.98,9.14,19.96-.99,7.04-12.38,5.3-18.32,1.77,1.77,35.3,2.88,106.76-.84,111.52-6.54,8.38-28.01,.73-73.37,.17-7.03-.09,2.67-60.89,1.7-80.27-.53-10.57-44.17-9.32-44.32,.47-.29,18.5,.42,64.17-1.2,82.6-20.29-1.99-66.11,10.22-70.46,3.57-8.65-13.23,16.78-131.97,2.65-125.77-27.92,12.27-25.22-10.52-2.96-23.76"/><path id="Cocody-6" class="cls-11" d="M621.35,2356.57c43.93-31.88,84.25-69.96,102.03-58.52,29.93,19.26,35.83,25.19,42.81,29.27,0,0,.37-8.15,2.07-23.99-22.85-13.32,43.18-14.52,30.48-.44-8.44,9.36-4.82,33.59-5.93,38.28-.93,3.94,16.19,15.51,26.52,25.14,9.27,10.27,10.97,6.98,9.14,19.96-.99,7.04-12.38,5.3-18.32,1.77,1.77,35.3,2.88,106.76-.84,111.52-6.54,8.38-28.01,.73-73.37,.17-7.03-.09,2.67-60.89,1.7-80.27-.53-10.57-44.17-9.32-44.32,.47-.29,18.5,.42,64.17-1.2,82.6-20.29-1.99-66.11,10.22-70.46,3.57-8.65-13.23,16.78-131.97,2.65-125.77-27.92,12.26-25.22-10.52-2.96-23.76"/><path id="Cocody-7" class="cls-11" d="M621.35,2106.43c43.93-31.88,84.25-69.95,102.03-58.52,29.93,19.26,35.83,25.18,42.81,29.27,0,0,.37-8.15,2.07-23.99-22.85-13.32,43.18-14.52,30.48-.44-8.44,9.36-4.82,33.59-5.93,38.28-.93,3.94,16.19,15.51,26.52,25.14,9.27,10.28,10.97,6.98,9.14,19.96-.99,7.04-12.38,5.3-18.32,1.77,1.77,35.3,2.88,106.76-.84,111.52-6.54,8.38-28.01,.73-73.37,.17-7.03-.09,2.67-60.89,1.7-80.27-.53-10.57-44.17-9.32-44.32,.47-.29,18.5,.42,64.17-1.2,82.6-20.29-1.99-66.11,10.22-70.46,3.57-8.65-13.23,16.78-131.97,2.65-125.77-27.92,12.27-25.22-10.52-2.96-23.76"/><path id="Cocody-8" class="cls-11" d="M621.35,2591.07c43.93-31.88,84.25-69.96,102.03-58.52,29.93,19.26,35.83,25.19,42.81,29.27,0,0,.37-8.15,2.07-23.99-22.85-13.32,43.18-14.52,30.48-.44-8.44,9.36-4.82,33.59-5.93,38.28-.93,3.94,16.19,15.51,26.52,25.14,9.27,10.28,10.97,6.98,9.14,19.96-.99,7.04-12.38,5.3-18.32,1.77,1.77,35.3,2.88,106.75-.84,111.52-6.54,8.38-28.01,.73-73.37,.17-7.03-.09,2.67-60.89,1.7-80.27-.53-10.57-44.17-9.32-44.32,.47-.29,18.5,.42,64.17-1.2,82.6-20.29-1.99-66.11,10.22-70.46,3.57-8.65-13.23,16.78-131.98,2.65-125.77-27.92,12.27-25.22-10.52-2.96-23.76"/><path id="Cocody-9" class="cls-11" d="M621.34,1631.96c43.93-31.88,84.25-69.95,102.03-58.52,29.93,19.26,35.83,25.19,42.81,29.27,0,0,.37-8.15,2.07-23.99-22.85-13.32,43.18-14.52,30.48-.44-8.44,9.36-4.82,33.59-5.93,38.28-.93,3.94,16.19,15.51,26.52,25.14,9.27,10.28,10.97,6.97,9.14,19.96-.99,7.04-12.38,5.3-18.32,1.77,1.77,35.31,2.88,106.76-.84,111.52-6.54,8.38-28.01,.72-73.37,.17-7.03-.09,2.67-60.89,1.7-80.27-.53-10.57-44.17-9.32-44.32,.47-.29,18.5,.42,64.17-1.2,82.6-20.29-1.99-66.11,10.22-70.46,3.57-8.65-13.23,16.78-131.97,2.65-125.77-27.92,12.27-25.22-10.52-2.96-23.76"/><path id="Cocody-10" class="cls-11" d="M621.34,1381.81c43.93-31.88,84.25-69.95,102.03-58.52,29.93,19.26,35.83,25.19,42.81,29.27,0,0,.37-8.15,2.07-23.99-22.85-13.32,43.18-14.52,30.48-.44-8.44,9.36-4.82,33.59-5.93,38.28-.93,3.94,16.19,15.51,26.52,25.14,9.27,10.28,10.97,6.97,9.14,19.96-.99,7.04-12.38,5.3-18.32,1.77,1.77,35.31,2.88,106.76-.84,111.52-6.54,8.38-28.01,.72-73.37,.17-7.03-.09,2.67-60.89,1.7-80.27-.53-10.57-44.17-9.32-44.32,.47-.29,18.5,.42,64.17-1.2,82.6-20.29-1.99-66.11,10.22-70.46,3.57-8.65-13.23,16.78-131.97,2.65-125.77-27.92,12.27-25.22-10.52-2.96-23.76"/><path id="Cocody-11" class="cls-11" d="M621.34,1147.32c43.93-31.88,84.25-69.95,102.03-58.52,29.93,19.26,35.83,25.19,42.81,29.27,0,0,.37-8.15,2.07-23.99-22.85-13.32,43.18-14.52,30.48-.44-8.44,9.36-4.82,33.59-5.93,38.28-.93,3.94,16.19,15.51,26.52,25.14,9.27,10.28,10.97,6.97,9.14,19.96-.99,7.04-12.38,5.3-18.32,1.77,1.77,35.31,2.88,106.76-.84,111.52-6.54,8.38-28.01,.72-73.37,.17-7.03-.09,2.67-60.89,1.7-80.27-.53-10.57-44.17-9.32-44.32,.47-.29,18.5,.42,64.17-1.2,82.6-20.29-1.99-66.11,10.22-70.46,3.57-8.65-13.23,16.78-131.97,2.65-125.77-27.92,12.27-25.22-10.52-2.96-23.76"/><path id="Cocody-12" class="cls-11" d="M621.34,1866.45c43.93-31.88,84.25-69.95,102.03-58.52,29.93,19.26,35.83,25.19,42.81,29.27,0,0,.37-8.15,2.07-23.99-22.85-13.32,43.18-14.52,30.48-.44-8.44,9.36-4.82,33.59-5.93,38.28-.93,3.94,16.19,15.51,26.52,25.14,9.27,10.28,10.97,6.97,9.14,19.96-.99,7.04-12.38,5.3-18.32,1.77,1.77,35.31,2.88,106.76-.84,111.52-6.54,8.38-28.01,.72-73.37,.17-7.03-.09,2.67-60.89,1.7-80.27-.53-10.57-44.17-9.32-44.32,.47-.29,18.5,.42,64.17-1.2,82.6-20.29-1.99-66.11,10.22-70.46,3.57-8.65-13.23,16.78-131.97,2.65-125.77-27.92,12.26-25.22-10.52-2.96-23.76"/><path id="Cocody-13" class="cls-11" d="M621.34,678.33c43.93-31.88,84.25-69.96,102.03-58.52,29.93,19.26,35.83,25.18,42.81,29.27,0,0,.37-8.15,2.07-23.99-22.85-13.32,43.18-14.52,30.48-.44-8.44,9.36-4.82,33.59-5.93,38.28-.93,3.94,16.19,15.51,26.52,25.14,9.27,10.28,10.97,6.97,9.14,19.96-.99,7.04-12.38,5.3-18.32,1.77,1.77,35.3,2.88,106.76-.84,111.52-6.54,8.38-28.01,.72-73.37,.17-7.03-.09,2.67-60.89,1.7-80.27-.53-10.57-44.17-9.32-44.32,.47-.29,18.5,.42,64.17-1.2,82.6-20.29-1.99-66.11,10.22-70.46,3.57-8.65-13.23,16.78-131.97,2.65-125.77-27.92,12.27-25.22-10.52-2.96-23.76"/><path id="Cocody-14" class="cls-11" d="M621.34,912.83c43.93-31.88,84.25-69.96,102.03-58.52,29.93,19.26,35.83,25.18,42.81,29.27,0,0,.37-8.15,2.07-23.99-22.85-13.32,43.18-14.52,30.48-.44-8.44,9.36-4.82,33.59-5.93,38.28-.93,3.94,16.19,15.51,26.52,25.14,9.27,10.28,10.97,6.97,9.14,19.96-.99,7.04-12.38,5.3-18.32,1.77,1.77,35.3,2.88,106.76-.84,111.52-6.54,8.38-28.01,.72-73.37,.17-7.03-.09,2.67-60.89,1.7-80.27-.53-10.57-44.17-9.32-44.32,.47-.29,18.5,.42,64.17-1.2,82.6-20.29-1.99-66.11,10.22-70.46,3.57-8.65-13.23,16.78-131.97,2.65-125.77-27.92,12.27-25.22-10.52-2.96-23.76"/></g></g></g><g id="Graph2-Timeline"><g id="HousesTimeline"><g id="Cocody-Timeline"><path id="Cocody-2012" class="cls-11" d="M4455.24,3540.06c43.93-31.88,84.25-69.96,102.03-58.52,29.93,19.26,35.83,25.19,42.81,29.27,0,0,.37-8.15,2.06-23.99-22.85-13.32,43.18-14.52,30.48-.44-8.44,9.36-4.82,33.59-5.93,38.28-.93,3.94,16.19,15.51,26.52,25.14,9.27,10.28,10.97,6.98,9.14,19.96-.99,7.04-12.38,5.3-18.32,1.77,1.77,35.3,2.88,106.76-.83,111.52-6.54,8.38-28.01,.73-73.37,.17-7.03-.09,2.67-60.89,1.7-80.27-.53-10.57-44.17-9.32-44.32,.47-.29,18.5,.42,64.17-1.2,82.6-20.29-1.99-66.11,10.22-70.46,3.57-8.65-13.23,16.78-131.98,2.65-125.77-27.92,12.27-25.22-10.52-2.96-23.76"/><path id="Cocody-2013" class="cls-11" d="M4711.81,3302.88c43.93-31.88,84.25-69.96,102.03-58.52,29.93,19.26,35.83,25.19,42.81,29.27,0,0,.37-8.15,2.06-23.99-22.85-13.32,43.18-14.52,30.48-.44-8.44,9.36-4.82,33.59-5.93,38.28-.93,3.94,16.19,15.51,26.52,25.14,9.27,10.27,10.97,6.98,9.14,19.96-.99,7.04-12.38,5.3-18.32,1.77,1.77,35.3,2.88,106.75-.83,111.52-6.54,8.38-28.01,.73-73.38,.17-7.03-.09,2.67-60.89,1.7-80.27-.53-10.57-44.17-9.32-44.32,.47-.29,18.5,.42,64.17-1.2,82.6-20.29-1.99-66.11,10.22-70.46,3.57-8.65-13.23,16.78-131.98,2.65-125.77-27.92,12.27-25.22-10.52-2.96-23.76"/><path id="Cocody-2013-2" class="cls-11" d="M4711.81,3538.27c43.93-31.88,84.25-69.96,102.03-58.52,29.93,19.26,35.83,25.19,42.81,29.27,0,0,.37-8.15,2.06-23.99-22.85-13.32,43.18-14.52,30.48-.44-8.44,9.36-4.82,33.59-5.93,38.28-.93,3.94,16.19,15.51,26.52,25.14,9.27,10.27,10.97,6.98,9.14,19.96-.99,7.04-12.38,5.3-18.32,1.77,1.77,35.3,2.88,106.76-.83,111.52-6.54,8.38-28.01,.73-73.38,.17-7.03-.09,2.67-60.89,1.7-80.27-.53-10.57-44.17-9.32-44.32,.47-.29,18.5,.42,64.17-1.2,82.6-20.29-1.99-66.11,10.22-70.46,3.57-8.65-13.23,16.78-131.97,2.65-125.77-27.92,12.27-25.22-10.52-2.96-23.76"/><path id="Cocody-2015" class="cls-11" d="M5224.95,3302.88c43.93-31.88,84.25-69.96,102.03-58.52,29.93,19.26,35.83,25.19,42.81,29.27,0,0,.37-8.15,2.06-23.99-22.85-13.32,43.18-14.52,30.48-.44-8.44,9.36-4.82,33.59-5.93,38.28-.93,3.94,16.19,15.51,26.52,25.14,9.27,10.27,10.97,6.98,9.14,19.96-.99,7.04-12.38,5.3-18.32,1.77,1.77,35.3,2.88,106.75-.83,111.52-6.54,8.38-28.01,.73-73.37,.17-7.03-.09,2.67-60.89,1.7-80.27-.53-10.57-44.17-9.32-44.32,.47-.29,18.5,.42,64.17-1.2,82.6-20.29-1.99-66.11,10.22-70.46,3.57-8.65-13.23,16.78-131.98,2.65-125.77-27.92,12.27-25.22-10.52-2.96-23.76"/><path id="Cocody-2015-2" class="cls-11" d="M5224.95,3052.74c43.93-31.88,84.25-69.96,102.03-58.52,29.93,19.26,35.83,25.19,42.81,29.27,0,0,.37-8.15,2.06-23.99-22.85-13.32,43.18-14.52,30.48-.44-8.44,9.36-4.82,33.59-5.93,38.28-.93,3.94,16.19,15.51,26.52,25.14,9.27,10.27,10.97,6.98,9.14,19.96-.99,7.04-12.38,5.3-18.32,1.77,1.77,35.3,2.88,106.76-.83,111.52-6.54,8.38-28.01,.73-73.37,.17-7.03-.09,2.67-60.89,1.7-80.27-.53-10.57-44.17-9.32-44.32,.47-.29,18.5,.42,64.17-1.2,82.6-20.29-1.99-66.11,10.22-70.46,3.57-8.65-13.23,16.78-131.97,2.65-125.77-27.92,12.27-25.22-10.52-2.96-23.76"/><path id="Cocody-2015-3" class="cls-11" d="M5224.95,3537.38c43.93-31.88,84.25-69.96,102.03-58.52,29.93,19.26,35.83,25.19,42.81,29.27,0,0,.37-8.15,2.06-23.99-22.85-13.32,43.18-14.52,30.48-.44-8.44,9.36-4.82,33.59-5.93,38.28-.93,3.94,16.19,15.51,26.52,25.14,9.27,10.27,10.97,6.98,9.14,19.96-.99,7.04-12.38,5.3-18.32,1.77,1.77,35.3,2.88,106.76-.83,111.52-6.54,8.38-28.01,.73-73.37,.17-7.03-.09,2.67-60.89,1.7-80.27-.53-10.57-44.17-9.32-44.32,.47-.29,18.5,.42,64.17-1.2,82.6-20.29-1.99-66.11,10.22-70.46,3.57-8.65-13.23,16.78-131.97,2.65-125.77-27.92,12.27-25.22-10.52-2.96-23.76"/><path id="Cocody-2015-4" class="cls-11" d="M5224.96,2802.6c43.93-31.88,84.25-69.96,102.03-58.52,29.93,19.26,35.83,25.19,42.81,29.27,0,0,.37-8.15,2.06-23.99-22.85-13.32,43.18-14.52,30.48-.44-8.44,9.36-4.82,33.59-5.93,38.28-.93,3.94,16.19,15.51,26.52,25.14,9.27,10.27,10.97,6.98,9.14,19.96-.99,7.04-12.38,5.3-18.32,1.77,1.77,35.3,2.88,106.76-.83,111.52-6.54,8.38-28.01,.73-73.37,.17-7.03-.09,2.67-60.89,1.7-80.27-.53-10.57-44.17-9.32-44.32,.47-.29,18.5,.42,64.17-1.2,82.6-20.29-1.99-66.11,10.22-70.46,3.57-8.65-13.23,16.78-131.97,2.65-125.77-27.92,12.27-25.22-10.52-2.96-23.76"/><path id="Cocody-2015-5" class="cls-11" d="M5224.95,2562.62c43.93-31.88,84.25-69.96,102.03-58.52,29.93,19.26,35.83,25.19,42.81,29.27,0,0,.37-8.15,2.06-23.99-22.85-13.32,43.18-14.52,30.48-.44-8.44,9.36-4.82,33.59-5.93,38.28-.93,3.94,16.19,15.51,26.52,25.14,9.27,10.28,10.97,6.98,9.14,19.96-.99,7.04-12.38,5.3-18.32,1.77,1.77,35.3,2.88,106.75-.83,111.52-6.54,8.38-28.01,.73-73.38,.17-7.03-.09,2.67-60.89,1.7-80.27-.53-10.57-44.17-9.32-44.32,.47-.29,18.5,.42,64.17-1.2,82.6-20.29-1.99-66.11,10.22-70.46,3.57-8.65-13.23,16.78-131.98,2.65-125.77-27.92,12.27-25.22-10.52-2.96-23.76"/><path id="Cocody-2017" class="cls-11" d="M5738.1,3538.27c43.93-31.88,84.25-69.96,102.03-58.52,29.93,19.26,35.83,25.19,42.81,29.27,0,0,.37-8.15,2.06-23.99-22.85-13.32,43.18-14.52,30.48-.44-8.44,9.36-4.82,33.59-5.93,38.28-.93,3.94,16.19,15.51,26.52,25.14,9.27,10.27,10.97,6.98,9.14,19.96-.99,7.04-12.38,5.3-18.32,1.77,1.77,35.3,2.88,106.76-.83,111.52-6.54,8.38-28.01,.73-73.37,.17-7.03-.09,2.67-60.89,1.7-80.27-.53-10.57-44.17-9.32-44.32,.47-.29,18.5,.42,64.17-1.2,82.6-20.29-1.99-66.11,10.22-70.46,3.57-8.65-13.23,16.78-131.97,2.65-125.77-27.92,12.27-25.22-10.52-2.96-23.76"/><path id="Cocody-2018" class="cls-11" d="M5994.67,3535.53c43.93-31.88,84.25-69.96,102.03-58.52,29.93,19.26,35.83,25.19,42.81,29.27,0,0,.37-8.15,2.06-23.99-22.85-13.32,43.18-14.52,30.48-.44-8.44,9.36-4.82,33.59-5.93,38.28-.93,3.94,16.19,15.51,26.52,25.14,9.27,10.27,10.97,6.98,9.14,19.96-.99,7.04-12.38,5.3-18.32,1.77,1.77,35.3,2.88,106.76-.83,111.52-6.54,8.38-28.01,.73-73.37,.17-7.03-.09,2.67-60.89,1.7-80.27-.53-10.57-44.17-9.32-44.32,.47-.29,18.5,.42,64.17-1.2,82.6-20.29-1.99-66.11,10.22-70.46,3.57-8.65-13.23,16.78-131.97,2.65-125.77-27.92,12.27-25.22-10.52-2.96-23.76"/><path id="Cocody-2021" class="cls-11" d="M6764.38,3528.1c43.93-31.88,84.25-69.96,102.03-58.52,29.93,19.26,35.83,25.19,42.81,29.27,0,0,.37-8.15,2.06-23.99-22.85-13.32,43.18-14.52,30.48-.44-8.44,9.36-4.82,33.59-5.93,38.28-.93,3.94,16.19,15.51,26.52,25.14,9.27,10.28,10.97,6.98,9.14,19.96-.99,7.04-12.38,5.3-18.32,1.77,1.77,35.3,2.88,106.75-.83,111.52-6.54,8.38-28.01,.73-73.37,.17-7.03-.09,2.67-60.89,1.7-80.27-.53-10.57-44.17-9.32-44.32,.47-.29,18.5,.42,64.17-1.2,82.6-20.29-1.99-66.11,10.22-70.46,3.57-8.65-13.23,16.78-131.98,2.65-125.77-27.92,12.27-25.22-10.52-2.96-23.76"/><path id="Cocody-2021-2" class="cls-11" d="M6764.38,3285.44c43.93-31.88,84.25-69.96,102.03-58.52,29.93,19.26,35.83,25.19,42.81,29.27,0,0,.37-8.15,2.06-23.99-22.85-13.32,43.18-14.52,30.48-.44-8.44,9.36-4.82,33.59-5.93,38.28-.93,3.94,16.19,15.51,26.52,25.14,9.27,10.28,10.97,6.98,9.14,19.96-.99,7.04-12.38,5.3-18.32,1.77,1.77,35.3,2.88,106.76-.83,111.52-6.54,8.38-28.01,.73-73.37,.17-7.03-.09,2.67-60.89,1.7-80.27-.53-10.57-44.17-9.32-44.32,.47-.29,18.5,.42,64.17-1.2,82.6-20.29-1.99-66.11,10.22-70.46,3.57-8.65-13.23,16.78-131.98,2.65-125.77-27.92,12.27-25.22-10.52-2.96-23.76"/></g><g id="Port-Bouet-Timeline"><path id="Port_Bouet-2012" class="cls-15" d="M4455.24,3305.57c43.93-31.88,84.25-69.96,102.03-58.52,29.93,19.26,35.83,25.19,42.81,29.27,0,0,.37-8.15,2.06-23.99-22.85-13.32,43.18-14.52,30.48-.44-8.44,9.36-4.82,33.59-5.93,38.28-.93,3.94,16.19,15.51,26.52,25.14,9.27,10.27,10.97,6.98,9.14,19.96-.99,7.04-12.38,5.3-18.32,1.77,1.77,35.3,2.88,106.76-.83,111.52-6.54,8.38-28.01,.73-73.37,.17-7.03-.09,2.67-60.89,1.7-80.27-.53-10.57-44.17-9.32-44.32,.47-.29,18.5,.42,64.17-1.2,82.6-20.29-1.99-66.11,10.22-70.46,3.57-8.65-13.23,16.78-131.97,2.65-125.77-27.92,12.27-25.22-10.52-2.96-23.76"/><path id="Port_Bouet-2014" class="cls-15" d="M4968.38,3303.43c43.93-31.88,84.25-69.96,102.03-58.52,29.93,19.26,35.83,25.19,42.81,29.27,0,0,.37-8.15,2.06-23.99-22.85-13.32,43.18-14.52,30.48-.44-8.44,9.36-4.82,33.59-5.93,38.28-.93,3.94,16.19,15.51,26.52,25.14,9.27,10.27,10.97,6.98,9.14,19.96-.99,7.04-12.38,5.3-18.32,1.77,1.77,35.3,2.88,106.76-.83,111.52-6.54,8.38-28.01,.73-73.37,.17-7.03-.09,2.67-60.89,1.7-80.27-.53-10.57-44.17-9.32-44.32,.47-.29,18.5,.42,64.17-1.2,82.6-20.29-1.99-66.11,10.22-70.46,3.57-8.65-13.23,16.78-131.97,2.65-125.77-27.92,12.27-25.22-10.52-2.96-23.76"/><path id="Port_Bouet-2014-2" class="cls-15" d="M4968.38,3537.92c43.93-31.88,84.25-69.96,102.03-58.52,29.93,19.26,35.83,25.19,42.81,29.27,0,0,.37-8.15,2.06-23.99-22.85-13.32,43.18-14.52,30.48-.44-8.44,9.36-4.82,33.59-5.93,38.28-.93,3.94,16.19,15.51,26.52,25.14,9.27,10.28,10.97,6.98,9.14,19.96-.99,7.04-12.38,5.3-18.32,1.77,1.77,35.3,2.88,106.76-.83,111.52-6.54,8.38-28.01,.73-73.37,.17-7.03-.09,2.67-60.89,1.7-80.27-.53-10.57-44.17-9.32-44.32,.47-.29,18.5,.42,64.17-1.2,82.6-20.29-1.99-66.11,10.22-70.46,3.57-8.65-13.23,16.78-131.97,2.65-125.77-27.92,12.27-25.22-10.52-2.96-23.76"/><path id="Port_Bouet-2017" class="cls-15" d="M5738.1,3303.78c43.93-31.88,84.25-69.96,102.03-58.52,29.93,19.26,35.83,25.19,42.81,29.27,0,0,.37-8.15,2.06-23.99-22.85-13.32,43.18-14.52,30.48-.44-8.44,9.36-4.82,33.59-5.93,38.28-.93,3.94,16.19,15.51,26.52,25.14,9.27,10.28,10.97,6.98,9.14,19.96-.99,7.04-12.38,5.3-18.32,1.77,1.77,35.3,2.88,106.75-.83,111.52-6.54,8.38-28.01,.73-73.37,.17-7.03-.09,2.67-60.89,1.7-80.27-.53-10.57-44.17-9.32-44.32,.47-.29,18.5,.42,64.17-1.2,82.6-20.29-1.99-66.11,10.22-70.46,3.57-8.65-13.23,16.78-131.98,2.65-125.77-27.92,12.27-25.22-10.52-2.96-23.76"/><path id="Port_Bouet-2017-2" class="cls-15" d="M5738.1,3053.64c43.93-31.88,84.25-69.96,102.03-58.52,29.93,19.26,35.83,25.19,42.81,29.27,0,0,.37-8.15,2.06-23.99-22.85-13.32,43.18-14.52,30.48-.44-8.44,9.36-4.82,33.59-5.93,38.28-.93,3.94,16.19,15.51,26.52,25.14,9.27,10.28,10.97,6.98,9.14,19.96-.99,7.04-12.38,5.3-18.32,1.77,1.77,35.3,2.88,106.75-.83,111.52-6.54,8.38-28.01,.73-73.37,.17-7.03-.09,2.67-60.89,1.7-80.27-.53-10.57-44.17-9.32-44.32,.47-.29,18.5,.42,64.17-1.2,82.6-20.29-1.99-66.11,10.22-70.46,3.57-8.65-13.23,16.78-131.98,2.65-125.77-27.92,12.27-25.22-10.52-2.96-23.76"/><path id="Port_Bouet-2018" class="cls-15" d="M5994.67,3303.78c43.93-31.88,84.25-69.96,102.03-58.52,29.93,19.26,35.83,25.19,42.81,29.27,0,0,.37-8.15,2.06-23.99-22.85-13.32,43.18-14.52,30.48-.44-8.44,9.36-4.82,33.59-5.93,38.28-.93,3.94,16.19,15.51,26.52,25.14,9.27,10.28,10.97,6.98,9.14,19.96-.99,7.04-12.38,5.3-18.32,1.77,1.77,35.3,2.88,106.75-.83,111.52-6.54,8.38-28.01,.73-73.37,.17-7.03-.09,2.67-60.89,1.7-80.27-.53-10.57-44.17-9.32-44.32,.47-.29,18.5,.42,64.17-1.2,82.6-20.29-1.99-66.11,10.22-70.46,3.57-8.65-13.23,16.78-131.98,2.65-125.77-27.92,12.27-25.22-10.52-2.96-23.76"/><path id="Port_Bouet-2020" class="cls-15" d="M6507.81,3530.45c43.93-31.88,84.25-69.96,102.03-58.52,29.93,19.26,35.83,25.19,42.81,29.27,0,0,.37-8.15,2.06-23.99-22.85-13.32,43.18-14.52,30.48-.44-8.44,9.36-4.82,33.59-5.93,38.28-.93,3.94,16.19,15.51,26.52,25.14,9.27,10.28,10.97,6.98,9.14,19.96-.99,7.04-12.38,5.3-18.32,1.77,1.77,35.3,2.88,106.75-.83,111.52-6.54,8.38-28.01,.73-73.37,.17-7.03-.09,2.67-60.89,1.7-80.27-.53-10.57-44.17-9.32-44.32,.47-.29,18.5,.42,64.17-1.2,82.6-20.29-1.99-66.11,10.22-70.46,3.57-8.65-13.23,16.78-131.98,2.65-125.77-27.92,12.27-25.22-10.52-2.96-23.76"/></g><g id="Adjame-Timeline"><path id="Adjame-2015" class="cls-8" d="M5224.95,2322.64c43.93-31.88,84.25-69.96,102.03-58.52,29.93,19.26,35.83,25.19,42.81,29.27,0,0,.37-8.15,2.06-23.99-22.85-13.32,43.18-14.52,30.48-.44-8.44,9.36-4.82,33.59-5.93,38.28-.93,3.94,16.19,15.51,26.52,25.14,9.27,10.28,10.97,6.98,9.14,19.96-.99,7.04-12.38,5.3-18.32,1.77,1.77,35.3,2.88,106.76-.83,111.52-6.54,8.38-28.01,.73-73.37,.17-7.03-.09,2.67-60.89,1.7-80.27-.53-10.57-44.17-9.32-44.32,.47-.29,18.5,.42,64.17-1.2,82.6-20.29-1.99-66.11,10.22-70.46,3.57-8.65-13.23,16.78-131.97,2.65-125.77-27.92,12.26-25.22-10.52-2.96-23.76"/><path id="Adjame-2017" class="cls-8" d="M5738.1,2334.5c43.93-31.88,84.25-69.96,102.03-58.52,29.93,19.26,35.83,25.19,42.81,29.27,0,0,.37-8.15,2.06-23.99-22.85-13.32,43.18-14.52,30.48-.44-8.44,9.36-4.82,33.59-5.93,38.28-.93,3.94,16.19,15.51,26.52,25.14,9.27,10.27,10.97,6.98,9.14,19.96-.99,7.04-12.38,5.3-18.32,1.77,1.77,35.3,2.88,106.76-.83,111.52-6.54,8.38-28.01,.73-73.37,.17-7.03-.09,2.67-60.89,1.7-80.27-.53-10.57-44.17-9.32-44.32,.47-.29,18.5,.42,64.17-1.2,82.6-20.29-1.99-66.11,10.22-70.46,3.57-8.65-13.23,16.78-131.97,2.65-125.77-27.92,12.27-25.22-10.52-2.96-23.76"/><path id="Adjame-2017-2" class="cls-8" d="M5738.1,2803.49c43.93-31.88,84.25-69.96,102.03-58.52,29.93,19.26,35.83,25.19,42.81,29.27,0,0,.37-8.15,2.06-23.99-22.85-13.32,43.18-14.52,30.48-.44-8.44,9.36-4.82,33.59-5.93,38.28-.93,3.94,16.19,15.51,26.52,25.14,9.27,10.27,10.97,6.98,9.14,19.96-.99,7.04-12.38,5.3-18.32,1.77,1.77,35.3,2.88,106.76-.83,111.52-6.54,8.38-28.01,.73-73.37,.17-7.03-.09,2.67-60.89,1.7-80.27-.53-10.57-44.17-9.32-44.32,.47-.29,18.5,.42,64.17-1.2,82.6-20.29-1.99-66.11,10.22-70.46,3.57-8.65-13.23,16.78-131.98,2.65-125.77-27.92,12.27-25.22-10.52-2.96-23.76"/><path id="Adjame-2017-3" class="cls-8" d="M5738.1,2569c43.93-31.88,84.25-69.96,102.03-58.52,29.93,19.26,35.83,25.19,42.81,29.27,0,0,.37-8.15,2.06-23.99-22.85-13.32,43.18-14.52,30.48-.44-8.44,9.36-4.82,33.59-5.93,38.28-.93,3.94,16.19,15.51,26.52,25.14,9.27,10.28,10.97,6.98,9.14,19.96-.99,7.04-12.38,5.3-18.32,1.77,1.77,35.3,2.88,106.76-.83,111.52-6.54,8.38-28.01,.73-73.37,.17-7.03-.09,2.67-60.89,1.7-80.27-.53-10.57-44.17-9.32-44.32,.47-.29,18.5,.42,64.17-1.2,82.6-20.29-1.99-66.11,10.22-70.46,3.57-8.65-13.23,16.78-131.98,2.65-125.77-27.92,12.27-25.22-10.52-2.96-23.76"/></g><g id="Koumassi-Timeline"><path id="Koumassi-2019" class="cls-7" d="M6251.23,3535.53c43.93-31.88,84.25-69.96,102.03-58.52,29.93,19.26,35.83,25.19,42.81,29.27,0,0,.37-8.15,2.06-23.99-22.85-13.32,43.18-14.52,30.48-.44-8.44,9.36-4.82,33.59-5.93,38.28-.93,3.94,16.19,15.51,26.52,25.14,9.27,10.27,10.97,6.98,9.14,19.96-.99,7.04-12.38,5.3-18.32,1.77,1.77,35.3,2.88,106.76-.83,111.52-6.54,8.38-28.01,.73-73.38,.17-7.03-.09,2.67-60.89,1.7-80.27-.53-10.57-44.17-9.32-44.32,.47-.29,18.5,.42,64.17-1.2,82.6-20.29-1.99-66.11,10.22-70.46,3.57-8.65-13.23,16.78-131.97,2.65-125.77-27.91,12.27-25.22-10.52-2.96-23.76"/><path id="Koumassi-2019-2" class="cls-7" d="M6251.23,3303.78c43.93-31.88,84.25-69.96,102.03-58.52,29.93,19.26,35.83,25.19,42.81,29.27,0,0,.37-8.15,2.06-23.99-22.85-13.32,43.18-14.52,30.48-.44-8.44,9.36-4.82,33.59-5.93,38.28-.93,3.94,16.19,15.51,26.52,25.14,9.27,10.28,10.97,6.98,9.14,19.96-.99,7.04-12.38,5.3-18.32,1.77,1.77,35.3,2.88,106.75-.83,111.52-6.54,8.38-28.01,.73-73.38,.17-7.03-.09,2.67-60.89,1.7-80.27-.53-10.57-44.17-9.32-44.32,.47-.29,18.5,.42,64.17-1.2,82.6-20.29-1.99-66.11,10.22-70.46,3.57-8.65-13.23,16.78-131.98,2.65-125.77-27.91,12.27-25.22-10.52-2.96-23.76"/><path id="Koumassi-2020" class="cls-7" d="M6507.81,3053.29c43.93-31.88,84.25-69.96,102.03-58.52,29.93,19.26,35.83,25.19,42.81,29.27,0,0,.37-8.15,2.06-23.99-22.85-13.32,43.18-14.52,30.48-.44-8.44,9.36-4.82,33.59-5.93,38.28-.93,3.94,16.19,15.51,26.52,25.14,9.27,10.27,10.97,6.98,9.14,19.96-.99,7.04-12.38,5.3-18.32,1.77,1.77,35.3,2.88,106.76-.83,111.52-6.54,8.38-28.01,.73-73.37,.17-7.03-.09,2.67-60.89,1.7-80.27-.53-10.57-44.17-9.32-44.32,.47-.29,18.5,.42,64.17-1.2,82.6-20.29-1.99-66.11,10.22-70.46,3.57-8.65-13.23,16.78-131.97,2.65-125.77-27.92,12.27-25.22-10.52-2.96-23.76"/></g><g id="Marcory-Timeline"><path id="Marcory-2011" class="cls-9" d="M4198.67,3540.06c43.93-31.88,84.25-69.96,102.03-58.52,29.93,19.26,35.83,25.19,42.81,29.27,0,0,.37-8.15,2.06-23.99-22.85-13.32,43.18-14.52,30.48-.44-8.44,9.36-4.82,33.59-5.93,38.28-.93,3.94,16.19,15.51,26.52,25.14,9.27,10.28,10.97,6.98,9.14,19.96-.99,7.04-12.38,5.3-18.32,1.77,1.77,35.3,2.88,106.76-.83,111.52-6.54,8.38-28.01,.73-73.38,.17-7.03-.09,2.67-60.89,1.7-80.27-.53-10.57-44.17-9.32-44.32,.47-.29,18.5,.42,64.17-1.2,82.6-20.29-1.99-66.11,10.22-70.46,3.57-8.65-13.23,16.78-131.98,2.65-125.77-27.91,12.27-25.22-10.52-2.96-23.76"/><path id="Marcory-2016" class="cls-9" d="M5481.52,3303.78c43.93-31.88,84.25-69.96,102.03-58.52,29.93,19.26,35.83,25.19,42.81,29.27,0,0,.37-8.15,2.06-23.99-22.85-13.32,43.18-14.52,30.48-.44-8.44,9.36-4.82,33.59-5.93,38.28-.93,3.94,16.19,15.51,26.52,25.14,9.27,10.28,10.97,6.98,9.14,19.96-.99,7.04-12.38,5.3-18.32,1.77,1.77,35.3,2.88,106.75-.83,111.52-6.54,8.38-28.01,.73-73.38,.17-7.03-.09,2.67-60.89,1.7-80.27-.53-10.57-44.17-9.32-44.32,.47-.29,18.5,.42,64.17-1.2,82.6-20.29-1.99-66.11,10.22-70.46,3.57-8.65-13.23,16.78-131.98,2.65-125.77-27.92,12.27-25.22-10.52-2.96-23.76"/><path id="Marcory-2018" class="cls-9" d="M5994.67,2803.49c43.93-31.88,84.25-69.96,102.03-58.52,29.93,19.26,35.83,25.19,42.81,29.27,0,0,.37-8.15,2.06-23.99-22.85-13.32,43.18-14.52,30.48-.44-8.44,9.36-4.82,33.59-5.93,38.28-.93,3.94,16.19,15.51,26.52,25.14,9.27,10.27,10.97,6.98,9.14,19.96-.99,7.04-12.38,5.3-18.32,1.77,1.77,35.3,2.88,106.76-.83,111.52-6.54,8.38-28.01,.73-73.37,.17-7.03-.09,2.67-60.89,1.7-80.27-.53-10.57-44.17-9.32-44.32,.47-.29,18.5,.42,64.17-1.2,82.6-20.29-1.99-66.11,10.22-70.46,3.57-8.65-13.23,16.78-131.98,2.65-125.77-27.92,12.27-25.22-10.52-2.96-23.76"/></g><g id="Treichville-Timeline"><path id="Treichville-2015" class="cls-14" d="M5224.95,2082.65c43.93-31.88,84.25-69.95,102.03-58.52,29.93,19.26,35.83,25.18,42.81,29.27,0,0,.37-8.15,2.06-23.99-22.85-13.32,43.18-14.52,30.48-.44-8.44,9.36-4.82,33.59-5.93,38.28-.93,3.94,16.19,15.51,26.52,25.14,9.27,10.27,10.97,6.98,9.14,19.96-.99,7.04-12.38,5.3-18.32,1.77,1.77,35.3,2.88,106.76-.83,111.52-6.54,8.38-28.01,.73-73.38,.17-7.03-.09,2.67-60.89,1.7-80.27-.53-10.57-44.17-9.32-44.32,.47-.29,18.5,.42,64.17-1.2,82.6-20.29-1.99-66.11,10.22-70.46,3.57-8.65-13.23,16.78-131.97,2.65-125.77-27.92,12.27-25.22-10.52-2.96-23.76"/><path id="Treichville-2019" class="cls-14" d="M6251.23,3062.35c43.93-31.88,84.25-69.96,102.03-58.52,29.93,19.26,35.83,25.19,42.81,29.27,0,0,.37-8.15,2.06-23.99-22.85-13.32,43.18-14.52,30.48-.44-8.44,9.36-4.82,33.59-5.93,38.28-.93,3.94,16.19,15.51,26.52,25.14,9.27,10.27,10.97,6.98,9.14,19.96-.99,7.04-12.38,5.3-18.32,1.77,1.77,35.3,2.88,106.76-.83,111.52-6.54,8.38-28.01,.73-73.38,.17-7.03-.09,2.67-60.89,1.7-80.27-.53-10.57-44.17-9.32-44.32,.47-.29,18.5,.42,64.17-1.2,82.6-20.29-1.99-66.11,10.22-70.46,3.57-8.65-13.23,16.78-131.98,2.65-125.77-27.91,12.27-25.22-10.52-2.96-23.76"/><path id="Treichville-2019-2" class="cls-14" d="M6258.49,2820.93c43.93-31.88,84.25-69.96,102.03-58.52,29.93,19.26,35.83,25.19,42.81,29.27,0,0,.37-8.15,2.06-23.99-22.85-13.32,43.18-14.52,30.48-.44-8.44,9.36-4.82,33.59-5.93,38.28-.93,3.94,16.19,15.51,26.52,25.14,9.27,10.27,10.97,6.98,9.14,19.96-.99,7.04-12.38,5.3-18.32,1.77,1.77,35.3,2.88,106.76-.83,111.52-6.54,8.38-28.01,.73-73.37,.17-7.03-.09,2.67-60.89,1.7-80.27-.53-10.57-44.17-9.32-44.32,.47-.29,18.5,.42,64.17-1.2,82.6-20.29-1.99-66.11,10.22-70.46,3.57-8.65-13.23,16.78-131.97,2.65-125.77-27.92,12.27-25.22-10.52-2.96-23.76"/></g><g id="Abobo-Timeline"><path id="Abobo-2016" class="cls-13" d="M5481.52,3538.27c43.93-31.88,84.25-69.96,102.03-58.52,29.93,19.26,35.83,25.19,42.81,29.27,0,0,.37-8.15,2.06-23.99-22.85-13.32,43.18-14.52,30.48-.44-8.44,9.36-4.82,33.59-5.93,38.28-.93,3.94,16.19,15.51,26.52,25.14,9.27,10.27,10.97,6.98,9.14,19.96-.99,7.04-12.38,5.3-18.32,1.77,1.77,35.3,2.88,106.76-.83,111.52-6.54,8.38-28.01,.73-73.38,.17-7.03-.09,2.67-60.89,1.7-80.27-.53-10.57-44.17-9.32-44.32,.47-.29,18.5,.42,64.17-1.2,82.6-20.29-1.99-66.11,10.22-70.46,3.57-8.65-13.23,16.78-131.97,2.65-125.77-27.92,12.27-25.22-10.52-2.96-23.76"/><path id="Abobo-2018" class="cls-13" d="M5994.67,3052.74c43.93-31.88,84.25-69.96,102.03-58.52,29.93,19.26,35.83,25.19,42.81,29.27,0,0,.37-8.15,2.06-23.99-22.85-13.32,43.18-14.52,30.48-.44-8.44,9.36-4.82,33.59-5.93,38.28-.93,3.94,16.19,15.51,26.52,25.14,9.27,10.27,10.97,6.98,9.14,19.96-.99,7.04-12.38,5.3-18.32,1.77,1.77,35.3,2.88,106.76-.83,111.52-6.54,8.38-28.01,.73-73.37,.17-7.03-.09,2.67-60.89,1.7-80.27-.53-10.57-44.17-9.32-44.32,.47-.29,18.5,.42,64.17-1.2,82.6-20.29-1.99-66.11,10.22-70.46,3.57-8.65-13.23,16.78-131.97,2.65-125.77-27.92,12.27-25.22-10.52-2.96-23.76"/><path id="Abobo-2020" class="cls-13" d="M6507.81,3287.78c43.93-31.88,84.25-69.96,102.03-58.52,29.93,19.26,35.83,25.19,42.81,29.27,0,0,.37-8.15,2.06-23.99-22.85-13.32,43.18-14.52,30.48-.44-8.44,9.36-4.82,33.59-5.93,38.28-.93,3.94,16.19,15.51,26.52,25.14,9.27,10.28,10.97,6.98,9.14,19.96-.99,7.04-12.38,5.3-18.32,1.77,1.77,35.3,2.88,106.76-.83,111.52-6.54,8.38-28.01,.73-73.37,.17-7.03-.09,2.67-60.89,1.7-80.27-.53-10.57-44.17-9.32-44.32,.47-.29,18.5,.42,64.17-1.2,82.6-20.29-1.99-66.11,10.22-70.46,3.57-8.65-13.23,16.78-131.97,2.65-125.77-27.92,12.27-25.22-10.52-2.96-23.76"/></g><g id="Yopougon-Timeline"><path id="Yopougon-2016" class="cls-10" d="M6764.38,3052.74c43.93-31.88,84.25-69.96,102.03-58.52,29.93,19.26,35.83,25.19,42.81,29.27,0,0,.37-8.15,2.06-23.99-22.85-13.32,43.18-14.52,30.48-.44-8.44,9.36-4.82,33.59-5.93,38.28-.93,3.94,16.19,15.51,26.52,25.14,9.27,10.27,10.97,6.98,9.14,19.96-.99,7.04-12.38,5.3-18.32,1.77,1.77,35.3,2.88,106.76-.83,111.52-6.54,8.38-28.01,.73-73.38,.17-7.03-.09,2.67-60.89,1.7-80.27-.53-10.57-44.17-9.32-44.32,.47-.29,18.5,.42,64.17-1.2,82.6-20.29-1.99-66.11,10.22-70.46,3.57-8.65-13.23,16.78-131.98,2.65-125.77-27.92,12.27-25.22-10.52-2.96-23.76"/></g><g id="Attecoube-Timeline"><path id="Attecoube-2016" class="cls-12" d="M5481.52,3053.29c43.93-31.88,84.25-69.96,102.03-58.52,29.93,19.26,35.83,25.19,42.81,29.27,0,0,.37-8.15,2.06-23.99-22.85-13.32,43.18-14.52,30.48-.44-8.44,9.36-4.82,33.59-5.93,38.28-.93,3.94,16.19,15.51,26.52,25.14,9.27,10.27,10.97,6.98,9.14,19.96-.99,7.04-12.38,5.3-18.32,1.77,1.77,35.3,2.88,106.76-.83,111.52-6.54,8.38-28.01,.73-73.38,.17-7.03-.09,2.67-60.89,1.7-80.27-.53-10.57-44.17-9.32-44.32,.47-.29,18.5,.42,64.17-1.2,82.6-20.29-1.99-66.11,10.22-70.46,3.57-8.65-13.23,16.78-131.97,2.65-125.77-27.92,12.27-25.22-10.52-2.96-23.76"/></g></g><g id="LegendTimeline"><g id="FirstTerm"><line id="LineFirstTerm" class="cls-16" x1="4037.32" y1="3779.25" x2="4037.32" y2="1461.44"/><text class="cls-1" transform="translate(4035.43 1417.94) scale(.91 1)"><tspan x="0" y="0">Second Ivorian Civil War</tspan></text><text class="cls-1" transform="translate(4038.79 1320.06) scale(.91 1)"><tspan x="0" y="0">Start of Pres. Ouattara’s first term</tspan></text></g><g id="SecondTerm"><line id="LineSecondTerm" class="cls-16" x1="5451.16" y1="3779.25" x2="5451.16" y2="1811.9"/><text class="cls-1" transform="translate(4843.61 1777) scale(.91 1)"><tspan x="0" y="0">Start of Pres. Ouattara’s second term</tspan></text></g><g id="ThirdTerm"><line id="LineThirdTerm" class="cls-16" x1="6731.31" y1="3779.25" x2="6731.31" y2="1452.18"/><text class="cls-1" transform="translate(5619.3 1419.3) scale(.91 1)"><tspan x="0" y="0">Start of Pres. Ouattara’s third term</tspan></text></g><g id="x_axis-2"><text class="cls-3" transform="translate(4196.56 3893.73) scale(.91 1)"><tspan x="0" y="0">2011</tspan></text><text class="cls-3" transform="translate(4453.13 3894.99) scale(.91 1)"><tspan x="0" y="0">2012</tspan></text><text class="cls-3" transform="translate(4711.92 3893.73) scale(.91 1)"><tspan x="0" y="0">2013</tspan></text><text class="cls-3" transform="translate(4974.93 3892.47) scale(.91 1)"><tspan x="0" y="0">2014</tspan></text><text class="cls-3" transform="translate(5232.38 3895) scale(.91 1)"><tspan x="0" y="0">2015</tspan></text><text class="cls-3" transform="translate(5497.39 3895) scale(.91 1)"><tspan x="0" y="0">2016</tspan></text><text class="cls-3" transform="translate(5747.29 3894.99) scale(.91 1)"><tspan x="0" y="0">2017</tspan></text><text class="cls-3" transform="translate(5997.18 3894.99) scale(.91 1)"><tspan x="0" y="0">2018</tspan></text><text class="cls-3" transform="translate(6254.63 3897.51) scale(.91 1)"><tspan x="0" y="0">2019</tspan></text><text class="cls-3" transform="translate(6519.64 3897.51) scale(.91 1)"><tspan x="0" y="0">2020</tspan></text><text class="cls-3" transform="translate(6772.21 3897.17) scale(.91 1)"><tspan x="0" y="0">2021</tspan></text><line id="_Line_2011" class="cls-6" x1="4293.89" y1="3742.89" x2="4293.89" y2="3806.99"/><line id="_Line_2012" class="cls-6" x1="4550.46" y1="3742.89" x2="4550.46" y2="3806.99"/><line id="_Line_2013" class="cls-6" x1="4807.03" y1="3740.25" x2="4807.03" y2="3804.35"/><line id="_Line_2014" class="cls-6" x1="5063.6" y1="3741.57" x2="5063.6" y2="3805.67"/><line id="_Line_2015" class="cls-6" x1="5320.17" y1="3741.57" x2="5320.17" y2="3805.67"/><line id="_Line_2017" class="cls-6" x1="5833.31" y1="3740.25" x2="5833.31" y2="3804.35"/><line id="_Line_2018" class="cls-6" x1="6089.88" y1="3740.25" x2="6089.88" y2="3804.35"/><text class="cls-3" transform="translate(3936.78 3896.55) scale(.91 1)"><tspan x="0" y="0">2010</tspan></text><line id="_Line_2012-2" class="cls-6" x1="4037.32" y1="3742.89" x2="4037.32" y2="3806.99"/><line id="Line_X_axis" class="cls-17" x1="3905.6" y1="3779.28" x2="7019.49" y2="3778.3"/><text id="Destruction_year-3" class="cls-4" transform="translate(5320.17 4036.85) scale(.91 1)"><tspan x="0" y="0">Destruction year</tspan></text><line id="_Line_2016" class="cls-6" x1="5576.74" y1="3738.93" x2="5576.74" y2="3803.03"/><line id="_Line_2019" class="cls-6" x1="6346.46" y1="3737.6" x2="6346.46" y2="3801.71"/><line id="_Line_2020" class="cls-6" x1="6603.02" y1="3738.93" x2="6603.02" y2="3803.03"/><line id="_Line_2021" class="cls-6" x1="6859.6" y1="3738.93" x2="6859.6" y2="3803.03"/></g><g id="y_axis-2"><text class="cls-3" transform="translate(3820.83 3638.41) scale(.91 1)"><tspan x="0" y="0">1</tspan></text><line id="_Line_1-4" class="cls-6" x1="3943.16" y1="3631.5" x2="3879.06" y2="3631.5"/><text class="cls-3" transform="translate(3814.96 3418.83) scale(.91 1)"><tspan x="0" y="0">2</tspan></text><line id="_Line_2-4" class="cls-6" x1="3943.16" y1="3391.45" x2="3879.06" y2="3391.45"/><text class="cls-3" transform="translate(3812.02 3172.33) scale(.91 1)"><tspan x="0" y="0">3</tspan></text><line id="_Line_3-4" class="cls-6" x1="3943.16" y1="3151.4" x2="3879.06" y2="3151.4"/><line id="_Line_4-5" class="cls-6" x1="3943.16" y1="2911.34" x2="3879.06" y2="2911.34"/><line id="_Line_1-5" class="cls-6" x1="3943.78" y1="2671.29" x2="3879.68" y2="2671.29"/><line id="_Line_2-5" class="cls-6" x1="3943.78" y1="2431.24" x2="3879.68" y2="2431.24"/><line id="_Line_3-5" class="cls-6" x1="3943.78" y1="2191.18" x2="3879.68" y2="2191.18"/><text class="cls-3" transform="translate(3819.17 2935.04) scale(.91 1)"><tspan x="0" y="0">4</tspan></text><text class="cls-3" transform="translate(3815.87 2689.58) scale(.91 1)"><tspan x="0" y="0">5</tspan></text><text class="cls-3" transform="translate(3814.76 2456.81) scale(.91 1)"><tspan x="0" y="0">6</tspan></text><text class="cls-3" transform="translate(3818.44 2215.79) scale(.91 1)"><tspan x="0" y="0">7</tspan></text><line id="Line_Y_axis" class="cls-17" x1="3905.6" y1="3779.25" x2="3905.6" y2="2053.71"/><text id="Destruction_year-4" class="cls-4" transform="translate(3742.28 3777.09) rotate(-90) scale(.91 1)"><tspan x="0" y="0">Number of neighborhoods* destroyed</tspan></text></g></g></g><text class="cls-20" transform="translate(4211.45 840.28)"><tspan x="0" y="0">*Neighborhoods defined by clusters of populated land where the destruction can be</tspan><tspan x="-341.52" y="84">seen with historical satellite imagery on Google Earth. Size and number of houses varies per municipalit</tspan><tspan class="cls-19" x="2872.32" y="84">y</tspan><tspan class="cls-21" x="2902.13" y="84">.</tspan></text><text class="cls-5" transform="translate(85.44 4120.54) scale(.94 1)"><tspan x="0" y="0">Graphs and data: Isabel Bonnet • Source: Google Earth</tspan></text><text class="cls-18" transform="translate(3963.16 384.03) scale(.93 1)"><tspan x="0" y="0">Neighborhoods destroyed</tspan><tspan x="-114.93" y="270">per municipality since 2010</tspan></text></g></g></svg>