<?xml version="1.0" encoding="UTF-8"?><svg id="Layer_1" xmlns="http://www.w3.org/2000/svg" viewBox="0 0 1805.47 844.82"><defs><style>.cls-1{font-family:Georgia-Bold, Georgia;font-size:60px;font-weight:700;}.cls-1,.cls-2{isolation:isolate;}.cls-3{fill:#a37e9b;stroke:#000;}.cls-3,.cls-4,.cls-5,.cls-6{stroke-miterlimit:10;stroke-width:2px;}.cls-4{fill:#bc5858;stroke:#893737;}.cls-7{fill:#fff;font-family:Georgia, Georgia;font-size:17px;}.cls-8{letter-spacing:-.06em;}.cls-5{stroke:#f4d0f0;}.cls-5,.cls-6{fill:none;}.cls-6{stroke:#c19abd;}.cls-2{font-family:ArialMT, Arial;font-size:20px;}</style></defs><g id="AbidjanBassamHighway"><path id="CotedIvoire" class="cls-3" d="M1090.28,717.27c4.04-14.32,14.4,20.7,18.46,21.28,10.44,1.49,19.9-7.93,22.33-18.19,2.43-10.26-.3-20.95-3.02-31.14l-17.03-.67c-6.18-16.8-12.35-33.6-18.53-50.39-9.2-25.02-17.31-56.27,.93-75.71,5.56-5.93,13.41-10.42,15.82-18.19,1.65-5.3,.35-10.99,.1-16.53-.58-13.29,4.96-25.99,10.39-38.14,4.6-10.3,11.01-22.01,22.19-23.48l-2.92-11.06c10.79-2.21,11.04-17.44,8.63-28.19-3.52-15.65-7.03-31.31-10.55-46.96-5.41,.48-10.77-4.04-11.21-9.45-.44-5.42,4.12-10.74,9.55-11.13l-2.04-16.26c-.39-3.1-3.42-4.99-6.46-4.24-2.04,.5-4.31,.36-6.22-.48-4.29-1.89-7.06-6.05-9.6-10-7.29-11.36-14.59-22.72-21.88-34.08-4.01,.85-7.78,2.85-10.72,5.71-7.9-4.32-16.79-6.78-25.79-7.15-13.45-.54-26.61,3.52-39.46,7.55-6.57,2.06-13.3,4.2-18.75,8.41-5.52,4.27-9.66,10.6-16.21,13.01-3.51,1.29-7.88,.23-10.73-2-3.47-2.72-8.12-3.56-12.37-2.4-.35,.1-.7,.18-1.05,.26-2.89-.78-5.33-1.44-8.21-2.22-15.59-13.9-26.98-32.41-32.44-52.56-7.89-4.67-18.05-5.26-26.42-1.52-1.69-11.7-16.26-17.63-27.76-14.87-12.41,2.98-21.96,12.69-31.66,20.79-1.35,1.13-3.02,1.85-4.78,1.92-4.32,.17-5.66-3.31-6.57-6.42-3.81-13.02-5.52-26.66-5.06-40.22l-18.52-.04-1.36,11.66-21.49-8.66,.89,27.67c-8.16-2.1-16.99-1.51-24.8,1.65-6.16,2.49-12.26,10.08-7.82,15.03l-9.64,2.6c.1-9.55-15.55-13.84-20.34-5.58l-2.3-12.64c-3.25,2.07-8.29-1.23-7.69-5.03-12.47-4.97-28.41,3.19-31.66,16.21-12.21,4.13-23.35,11.37-32.08,20.85,4.93,11.03,1.21,23.91,2.98,35.87,1.76,11.95,15.67,24.02,24.87,16.2,1.43,7.84,0,16.17-3.94,23.09,5.8,2.42,11.12,6,15.54,10.48-11.69,2.77-21.23,13.04-23.13,24.89,10.74-.17,21.4,5.57,27.15,14.65l2.28,29.04-13.51-15.18c.53,2.74-.77,5.74-3.13,7.23l-3.74-11.18c-9.01,.22-18.57,.61-26.03,5.65s-11.26,16.56-5.23,23.25c7.05,3.81,15.28,5.41,23.24,4.49-1.66,5.14-.07,11.17,3.91,14.83-2.89,2.1-7.05,2.3-10.12,.47-9.76,9.92,1.64,30.98-9.82,38.89-7.81,5.39-19.04-1.21-27.85,2.33,5.42,22.13,21.5,44.26,13.26,65.5-2.66,6.84-7.63,12.53-13.08,17.45-5.02,4.53-11,9.52-10.93,16.28,.08,6.75,11.93,10.5,13.04,3.84,14.51,8.53,31.79,12.27,48.53,10.5,3.63,21.68,22.26,39.99,44,43.25,11.55,17.81,5.45,41.4-2.16,61.22-7.98,20.8-17.36,43.69-8.19,64.48,1.11,2.52,2.74,4.82,4.92,6.5,13.7,10.56,30.51-11.4,46.79-8.27-1.31-7.92,7.38-13.5,14.77-16.64,53.04-22.55,108.76-38.78,165.61-48.25,23.5,3.73,47.67,3.22,71-1.49,10.98-2.22,16.44-6.43,33.22-3.67,6.63,1.02,15.58,2.65,22.14,4.07,14.58,3.17,27.8,.55,39.46-8.76"/><path class="cls-4" d="M1006.77,721.99c-1.95,.69-3.87,1.57-5.93,1.74s-4.37-.56-5.36-2.38c-.85-1.55-.86-3.87-2.53-4.46-1.01-.35-2.39,.11-3.04-.75-.33-.43-.17-2.89-.12-3.44,.22-2.86,.29-3.85,.51-6.71,.07-.94,.15-1.9,.57-2.74,.08-.15,.19-.33,.22-.38,.61-1,1.18-1.62,1.29-1.75,.98-1.13,2.34-3.82,.99-6.99-.4-.92,.7-2.41,1-3.37,.82-2.64,4.24-3.33,6.59-2.93,0,0,5.17-.67,6.97-.25,.72,.17,3.55-.82,6.64,3.09,.52,.66,3.17,4.72,3.91,5.1,1.84,.94,3.4,.34,6.01,1.64,2.24,1.11,3.39,2.05,2.46,4.37-.25,.63-1.04,1.43-.91,2.09,.16,.8,2.36,.96,2.64,1.72,.63,1.75-4.47,4.78-3.16,6.1,2.43-1.05,11.01-2.64,12.68-.59,.94,1.15,1.33,.33,2.76,.77,.46,.14,1.27,2.59,1.47,3.14,.33,.9-.31,1.6-1.27,1.61-2.64,0-4.86,1.54-7,.97-.52-.14-1.02,.13-1.24,.61-.58,1.26-3.06,1.1-5.12,1.49-7.1,1.35-13.99-.21-21.02,2.29Z"/><path class="cls-6" d="M1129.31,711.18c-2.04,.27-3.69,.26-4.86,.2-1.5-.08-2.2-.24-3.04,.2-1.48,.79-1.21,2.34-2.23,2.63-1.5,.44-2.62-2.8-5.06-2.84-1.31-.02-1.24,.91-3.65,1.62-.91,.27-3.05,.9-5.06,0-.74-.33-1.29-.79-2.03-1.42-1.1-.94-1.37-1.47-2.43-2.23-1.01-.72-1.21-.55-1.82-1.01-2.1-1.57-.8-4.29-2.63-5.87-1.36-1.17-2.57-.09-4.05-1.42-1.41-1.26-.69-2.57-2.03-3.65-1.57-1.26-3.23,0-4.46-1.22-.89-.88-.22-1.75-1.01-4.25-.48-1.51-.98-3.1-2.43-3.85-1.44-.74-3.59-.55-4.66,.61-1.3,1.41,.07,3.09-1.42,5.06-.83,1.11-2.1,1.69-2.84,2.03-.73,.33-1.52,.69-2.55,.7-1.69,.01-2.03-.95-3.52-1.17-2.12-.31-4.02,1.28-5.16,2.23-1.29,1.08-1.02,1.35-3.05,3.63-2.38,2.69-2.83,2.41-3.75,3.98-1.19,2.02-.69,2.92-1.87,4.45-1.1,1.42-2.58,1.97-3.52,2.34-3.32,1.31-4.19-.2-6.68,1.05-1.24,.63-2.31,1.75-4.45,3.98-1.21,1.27-.99,1.19-1.52,1.64-1.67,1.4-4.68,2.87-6.91,1.87-.94-.42-1.01-.96-1.88-1.05-1.31-.15-2.26,2.28-3.16,1.52-3.2-2.7-4.21-.43-7.27-1.64-7.54-3-9.82-1.61-12.33-4.4-2.75-3.05,2.64-9.39-14.83-10.55"/><path class="cls-5" d="M1053.72,709.61c-1.1,1.42-2.58,1.97-3.52,2.34-3.32,1.31-4.19-.2-6.68,1.05-1.24,.63-2.31,1.75-4.45,3.98-1.21,1.27-.99,1.19-1.52,1.64-1.67,1.4-4.68,2.87-6.91,1.87-.94-.42-1.01-.96-1.88-1.05-1.31-.15-2.26,2.28-3.16,1.52-3.2-2.7-4.21-.43-7.27-1.64-7.54-3-9.82-1.61-12.33-4.4"/></g><g id="Layer_3"><text class="cls-1" transform="translate(444.15 102.34) scale(.93 1)"><tspan x="0" y="0">Abidjan-Grand Bassam highway</tspan></text><text class="cls-2" transform="translate(530.52 139.08) scale(.94 1)"><tspan class="cls-8" x="0" y="0">A</tspan><tspan x="12.24" y="0" xml:space="preserve"> $122.58 million project of China Eximbank and the Government of Cote d&apos;Ivoire to build</tspan><tspan x="137.53" y="24">a 26.5-mile highway between</tspan><tspan class="cls-8" x="396.58" y="24"> </tspan><tspan x="401.03" y="24">Abidjan and Grand Bassam.</tspan></text><text class="cls-7" transform="translate(976.38 681.1)"><tspan x="0" y="0">Abidjan</tspan></text></g></svg>