<?xml version="1.0" encoding="UTF-8"?><svg id="Municipalities-Timeline" xmlns="http://www.w3.org/2000/svg" viewBox="0 0 2899.35 1907.94"><defs><style>.cls-1{fill:#dfb6af;}.cls-1,.cls-2,.cls-3,.cls-4,.cls-5,.cls-6,.cls-7,.cls-8,.cls-9{stroke:#000;stroke-miterlimit:10;stroke-width:10px;}.cls-2{fill:#c7988c;}.cls-3{fill:#A37272;}.cls-4{fill:#dfc9af;}.cls-5{fill:#D38879;}.cls-6{fill:#E0A47C;}.cls-7{fill:#af7e5d;}.cls-8{fill:#c0aa94;}.cls-9{fill:#a48271;}.cls-10{font-family:Arial-BoldMT, Arial;font-size:96.96px;font-weight:700;}.cls-11{letter-spacing:-.06em;}</style></defs><g id="Dates"><text class="cls-10" transform="translate(51.35 1825.92) scale(.91 1)"><tspan x="0" y="0">20</tspan><tspan class="cls-11" x="107.85" y="0">1</tspan><tspan x="156.43" y="0">1</tspan></text><text class="cls-10" transform="translate(307.92 1827.18) scale(.91 1)"><tspan x="0" y="0">2012</tspan></text><text class="cls-10" transform="translate(566.7 1825.92) scale(.91 1)"><tspan x="0" y="0">2013</tspan></text><text class="cls-10" transform="translate(829.71 1824.67) scale(.91 1)"><tspan x="0" y="0">2014</tspan></text><text class="cls-10" transform="translate(1087.16 1827.19) scale(.91 1)"><tspan x="0" y="0">2015</tspan></text><text class="cls-10" transform="translate(1352.18 1827.19) scale(.91 1)"><tspan x="0" y="0">2016</tspan></text><text class="cls-10" transform="translate(1602.07 1827.18) scale(.91 1)"><tspan x="0" y="0">2017</tspan></text><text class="cls-10" transform="translate(1851.96 1827.18) scale(.91 1)"><tspan x="0" y="0">2018</tspan></text><text class="cls-10" transform="translate(2109.41 1829.71) scale(.91 1)"><tspan x="0" y="0">2019</tspan></text><text class="cls-10" transform="translate(2374.43 1829.71) scale(.91 1)"><tspan x="0" y="0">2020</tspan></text><text class="cls-10" transform="translate(2627 1829.36) scale(.91 1)"><tspan x="0" y="0">2021</tspan></text></g><g id="_2011"><path id="Marcory" class="cls-8" d="M68.68,1565.07c43.93-31.88,84.25-69.95,102.03-58.52,29.93,19.26,35.83,25.18,42.81,29.27,0,0,.37-8.15,2.06-23.99-22.85-13.32,43.18-14.52,30.48-.44-8.44,9.36-4.82,33.59-5.93,38.28-.93,3.94,16.19,15.51,26.52,25.14,9.27,10.28,10.97,6.98,9.14,19.96-.99,7.04-12.38,5.3-18.32,1.77,1.77,35.3,2.88,106.76-.83,111.52-6.54,8.38-28.01,.73-73.37,.17-7.03-.09,2.67-60.89,1.7-80.27-.53-10.57-44.17-9.32-44.32,.47-.29,18.5,.42,64.17-1.2,82.6-20.29-1.99-66.11,10.22-70.46,3.57-8.64-13.23,16.78-131.97,2.65-125.77-27.92,12.27-25.22-10.52-2.96-23.76"/></g><g id="_2012"><path id="Port_Bouet-2" class="cls-1" d="M325.25,1330.58c43.93-31.88,84.25-69.95,102.03-58.52,29.93,19.26,35.83,25.18,42.81,29.27,0,0,.37-8.15,2.06-23.99-22.85-13.32,43.18-14.52,30.48-.44-8.44,9.36-4.82,33.59-5.93,38.28-.93,3.94,16.19,15.51,26.52,25.14,9.27,10.28,10.97,6.98,9.14,19.96-.99,7.04-12.38,5.3-18.32,1.77,1.77,35.3,2.88,106.76-.83,111.52-6.54,8.38-28.01,.73-73.37,.17-7.03-.09,2.67-60.89,1.7-80.27-.53-10.57-44.17-9.32-44.32,.47-.29,18.5,.42,64.17-1.2,82.6-20.29-1.99-66.11,10.22-70.46,3.57-8.64-13.23,16.78-131.97,2.65-125.77-27.92,12.27-25.22-10.52-2.96-23.76"/></g><g id="_2013"><path id="Cocody-2" class="cls-3" d="M581.82,1327.9c43.93-31.88,84.25-69.95,102.03-58.52,29.93,19.26,35.83,25.18,42.81,29.27,0,0,.37-8.15,2.06-23.99-22.85-13.32,43.18-14.52,30.48-.44-8.44,9.36-4.82,33.59-5.93,38.28-.93,3.94,16.19,15.51,26.52,25.14,9.27,10.28,10.97,6.98,9.14,19.96-.99,7.04-12.38,5.3-18.32,1.77,1.77,35.3,2.88,106.76-.83,111.52-6.54,8.38-28.01,.73-73.37,.17-7.03-.09,2.67-60.89,1.7-80.27-.53-10.57-44.17-9.32-44.32,.47-.29,18.5,.42,64.17-1.2,82.6-20.29-1.99-66.11,10.22-70.46,3.57-8.64-13.23,16.78-131.97,2.65-125.77-27.92,12.27-25.22-10.52-2.96-23.76"/><path id="Cocody-3" class="cls-3" d="M581.82,1563.28c43.93-31.88,84.25-69.95,102.03-58.52,29.93,19.26,35.83,25.18,42.81,29.27,0,0,.37-8.15,2.06-23.99-22.85-13.32,43.18-14.52,30.48-.44-8.44,9.36-4.82,33.59-5.93,38.28-.93,3.94,16.19,15.51,26.52,25.14,9.27,10.28,10.97,6.98,9.14,19.96-.99,7.04-12.38,5.3-18.32,1.77,1.77,35.3,2.88,106.76-.83,111.52-6.54,8.38-28.01,.73-73.37,.17-7.03-.09,2.67-60.89,1.7-80.27-.53-10.57-44.17-9.32-44.32,.47-.29,18.5,.42,64.17-1.2,82.6-20.29-1.99-66.11,10.22-70.46,3.57-8.64-13.23,16.78-131.97,2.65-125.77-27.92,12.27-25.22-10.52-2.96-23.76"/></g><g id="_2014"><path id="Cocody-4" class="cls-3" d="M325.25,1565.07c43.93-31.88,84.25-69.95,102.03-58.52,29.93,19.26,35.83,25.18,42.81,29.27,0,0,.37-8.15,2.06-23.99-22.85-13.32,43.18-14.52,30.48-.44-8.44,9.36-4.82,33.59-5.93,38.28-.93,3.94,16.19,15.51,26.52,25.14,9.27,10.28,10.97,6.98,9.14,19.96-.99,7.04-12.38,5.3-18.32,1.77,1.77,35.3,2.88,106.76-.83,111.52-6.54,8.38-28.01,.73-73.37,.17-7.03-.09,2.67-60.89,1.7-80.27-.53-10.57-44.17-9.32-44.32,.47-.29,18.5,.42,64.17-1.2,82.6-20.29-1.99-66.11,10.22-70.46,3.57-8.64-13.23,16.78-131.97,2.65-125.77-27.92,12.27-25.22-10.52-2.96-23.76"/><path id="Port_Bouet-3" class="cls-1" d="M838.39,1328.44c43.93-31.88,84.25-69.95,102.03-58.52,29.93,19.26,35.83,25.18,42.81,29.27,0,0,.37-8.15,2.06-23.99-22.85-13.32,43.18-14.52,30.48-.44-8.44,9.36-4.82,33.59-5.93,38.28-.93,3.94,16.19,15.51,26.52,25.14,9.27,10.28,10.97,6.98,9.14,19.96-.99,7.04-12.38,5.3-18.32,1.77,1.77,35.3,2.88,106.76-.83,111.52-6.54,8.38-28.01,.73-73.37,.17-7.03-.09,2.67-60.89,1.7-80.27-.53-10.57-44.17-9.32-44.32,.47-.29,18.5,.42,64.17-1.2,82.6-20.29-1.99-66.11,10.22-70.46,3.57-8.64-13.23,16.78-131.97,2.65-125.77-27.92,12.27-25.22-10.52-2.96-23.76"/><path id="Port_Bouet-4" class="cls-1" d="M838.39,1562.93c43.93-31.88,84.25-69.95,102.03-58.52,29.93,19.26,35.83,25.18,42.81,29.27,0,0,.37-8.15,2.06-23.99-22.85-13.32,43.18-14.52,30.48-.44-8.44,9.36-4.82,33.59-5.93,38.28-.93,3.94,16.19,15.51,26.52,25.14,9.27,10.28,10.97,6.98,9.14,19.96-.99,7.04-12.38,5.3-18.32,1.77,1.77,35.3,2.88,106.76-.83,111.52-6.54,8.38-28.01,.73-73.37,.17-7.03-.09,2.67-60.89,1.7-80.27-.53-10.57-44.17-9.32-44.32,.47-.29,18.5,.42,64.17-1.2,82.6-20.29-1.99-66.11,10.22-70.46,3.57-8.64-13.23,16.78-131.97,2.65-125.77-27.92,12.27-25.22-10.52-2.96-23.76"/></g><g id="_2015"><path id="Cocody-5" class="cls-3" d="M1094.96,1327.9c43.93-31.88,84.25-69.95,102.03-58.52,29.93,19.26,35.83,25.18,42.81,29.27,0,0,.37-8.15,2.06-23.99-22.85-13.32,43.18-14.52,30.48-.44-8.44,9.36-4.82,33.59-5.93,38.28-.93,3.94,16.19,15.51,26.52,25.14,9.27,10.28,10.97,6.98,9.14,19.96-.99,7.04-12.38,5.3-18.32,1.77,1.77,35.3,2.88,106.76-.83,111.52-6.54,8.38-28.01,.73-73.37,.17-7.03-.09,2.67-60.89,1.7-80.27-.53-10.57-44.17-9.32-44.32,.47-.29,18.5,.42,64.17-1.2,82.6-20.29-1.99-66.11,10.22-70.46,3.57-8.64-13.23,16.78-131.97,2.65-125.77-27.92,12.27-25.22-10.52-2.96-23.76"/><path id="Cocody-6" class="cls-3" d="M1094.96,1077.75c43.93-31.88,84.25-69.95,102.03-58.52,29.93,19.26,35.83,25.18,42.81,29.27,0,0,.37-8.15,2.06-23.99-22.85-13.32,43.18-14.52,30.48-.44-8.44,9.36-4.82,33.59-5.93,38.28-.93,3.94,16.19,15.51,26.52,25.14,9.27,10.28,10.97,6.98,9.14,19.96-.99,7.04-12.38,5.3-18.32,1.77,1.77,35.3,2.88,106.76-.83,111.52-6.54,8.38-28.01,.73-73.37,.17-7.03-.09,2.67-60.89,1.7-80.27-.53-10.57-44.17-9.32-44.32,.47-.29,18.5,.42,64.17-1.2,82.6-20.29-1.99-66.11,10.22-70.46,3.57-8.64-13.23,16.78-131.97,2.65-125.77-27.92,12.27-25.22-10.52-2.96-23.76"/><path id="Cocody-7" class="cls-3" d="M1094.96,1562.39c43.93-31.88,84.25-69.95,102.03-58.52,29.93,19.26,35.83,25.18,42.81,29.27,0,0,.37-8.15,2.06-23.99-22.85-13.32,43.18-14.52,30.48-.44-8.44,9.36-4.82,33.59-5.93,38.28-.93,3.94,16.19,15.51,26.52,25.14,9.27,10.28,10.97,6.98,9.14,19.96-.99,7.04-12.38,5.3-18.32,1.77,1.77,35.3,2.88,106.76-.83,111.52-6.54,8.38-28.01,.73-73.37,.17-7.03-.09,2.67-60.89,1.7-80.27-.53-10.57-44.17-9.32-44.32,.47-.29,18.5,.42,64.17-1.2,82.6-20.29-1.99-66.11,10.22-70.46,3.57-8.64-13.23,16.78-131.97,2.65-125.77-27.92,12.27-25.22-10.52-2.96-23.76"/><path id="Cocody-8" class="cls-3" d="M1094.97,827.61c43.93-31.88,84.25-69.95,102.03-58.52,29.93,19.26,35.83,25.18,42.81,29.27,0,0,.37-8.15,2.06-23.99-22.85-13.32,43.18-14.52,30.48-.44-8.44,9.36-4.82,33.59-5.93,38.28-.93,3.94,16.19,15.51,26.52,25.14,9.27,10.28,10.97,6.98,9.14,19.96-.99,7.04-12.38,5.3-18.32,1.77,1.77,35.3,2.88,106.76-.83,111.52-6.54,8.38-28.01,.73-73.37,.17-7.03-.09,2.67-60.89,1.7-80.27-.53-10.57-44.17-9.32-44.32,.47-.29,18.5,.42,64.17-1.2,82.6-20.29-1.99-66.11,10.22-70.46,3.57-8.64-13.23,16.78-131.97,2.65-125.77-27.92,12.27-25.22-10.52-2.96-23.76"/><path id="Cocody-9" class="cls-3" d="M1094.96,587.63c43.93-31.88,84.25-69.95,102.03-58.52,29.93,19.26,35.83,25.18,42.81,29.27,0,0,.37-8.15,2.06-23.99-22.85-13.32,43.18-14.52,30.48-.44-8.44,9.36-4.82,33.59-5.93,38.28-.93,3.94,16.19,15.51,26.52,25.14,9.27,10.28,10.97,6.98,9.14,19.96-.99,7.04-12.38,5.3-18.32,1.77,1.77,35.3,2.88,106.76-.83,111.52-6.54,8.38-28.01,.73-73.37,.17-7.03-.09,2.67-60.89,1.7-80.27-.53-10.57-44.17-9.32-44.32,.47-.29,18.5,.42,64.17-1.2,82.6-20.29-1.99-66.11,10.22-70.46,3.57-8.64-13.23,16.78-131.97,2.65-125.77-27.92,12.27-25.22-10.52-2.96-23.76"/><path id="Adjame-2" class="cls-4" d="M1094.96,347.65c43.93-31.88,84.25-69.95,102.03-58.52,29.93,19.26,35.83,25.18,42.81,29.27,0,0,.37-8.15,2.06-23.99-22.85-13.32,43.18-14.52,30.48-.44-8.44,9.36-4.82,33.59-5.93,38.28-.93,3.94,16.19,15.51,26.52,25.14,9.27,10.28,10.97,6.98,9.14,19.96-.99,7.04-12.38,5.3-18.32,1.77,1.77,35.3,2.88,106.76-.83,111.52-6.54,8.38-28.01,.73-73.37,.17-7.03-.09,2.67-60.89,1.7-80.27-.53-10.57-44.17-9.32-44.32,.47-.29,18.5,.42,64.17-1.2,82.6-20.29-1.99-66.11,10.22-70.46,3.57-8.64-13.23,16.78-131.97,2.65-125.77-27.92,12.27-25.22-10.52-2.96-23.76"/><path id="Treichville-2" class="cls-2" d="M1094.96,107.67c43.93-31.88,84.25-69.95,102.03-58.52,29.93,19.26,35.83,25.18,42.81,29.27,0,0,.37-8.15,2.06-23.99-22.85-13.32,43.18-14.52,30.48-.44-8.44,9.36-4.82,33.59-5.93,38.28-.93,3.94,16.19,15.51,26.52,25.14,9.27,10.28,10.97,6.98,9.14,19.96-.99,7.04-12.38,5.3-18.32,1.77,1.77,35.3,2.88,106.76-.83,111.52-6.54,8.38-28.01,.73-73.37,.17-7.03-.09,2.67-60.89,1.7-80.27-.53-10.57-44.17-9.32-44.32,.47-.29,18.5,.42,64.17-1.2,82.6-20.29-1.99-66.11,10.22-70.46,3.57-8.64-13.23,16.78-131.97,2.65-125.77-27.92,12.27-25.22-10.52-2.96-23.76"/></g><g id="_2016"><path id="Abobo-2" class="cls-7" d="M1351.53,1563.28c43.93-31.88,84.25-69.95,102.03-58.52,29.93,19.26,35.83,25.18,42.81,29.27,0,0,.37-8.15,2.06-23.99-22.85-13.32,43.18-14.52,30.48-.44-8.44,9.36-4.82,33.59-5.93,38.28-.93,3.94,16.19,15.51,26.52,25.14,9.27,10.28,10.97,6.98,9.14,19.96-.99,7.04-12.38,5.3-18.32,1.77,1.77,35.3,2.88,106.76-.83,111.52-6.54,8.38-28.01,.73-73.37,.17-7.03-.09,2.67-60.89,1.7-80.27-.53-10.57-44.17-9.32-44.32,.47-.29,18.5,.42,64.17-1.2,82.6-20.29-1.99-66.11,10.22-70.46,3.57-8.64-13.23,16.78-131.97,2.65-125.77-27.92,12.27-25.22-10.52-2.96-23.76"/><path id="Marcory-2" class="cls-8" d="M1351.53,1328.79c43.93-31.88,84.25-69.95,102.03-58.52,29.93,19.26,35.83,25.18,42.81,29.27,0,0,.37-8.15,2.06-23.99-22.85-13.32,43.18-14.52,30.48-.44-8.44,9.36-4.82,33.59-5.93,38.28-.93,3.94,16.19,15.51,26.52,25.14,9.27,10.28,10.97,6.98,9.14,19.96-.99,7.04-12.38,5.3-18.32,1.77,1.77,35.3,2.88,106.76-.83,111.52-6.54,8.38-28.01,.73-73.37,.17-7.03-.09,2.67-60.89,1.7-80.27-.53-10.57-44.17-9.32-44.32,.47-.29,18.5,.42,64.17-1.2,82.6-20.29-1.99-66.11,10.22-70.46,3.57-8.64-13.23,16.78-131.97,2.65-125.77-27.92,12.27-25.22-10.52-2.96-23.76"/></g><g id="_2017"><path id="Cocody-10" class="cls-3" d="M1608.1,1563.28c43.93-31.88,84.25-69.95,102.03-58.52,29.93,19.26,35.83,25.18,42.81,29.27,0,0,.37-8.15,2.06-23.99-22.85-13.32,43.18-14.52,30.48-.44-8.44,9.36-4.82,33.59-5.93,38.28-.93,3.94,16.19,15.51,26.52,25.14,9.27,10.28,10.97,6.98,9.14,19.96-.99,7.04-12.38,5.3-18.32,1.77,1.77,35.3,2.88,106.76-.83,111.52-6.54,8.38-28.01,.73-73.37,.17-7.03-.09,2.67-60.89,1.7-80.27-.53-10.57-44.17-9.32-44.32,.47-.29,18.5,.42,64.17-1.2,82.6-20.29-1.99-66.11,10.22-70.46,3.57-8.64-13.23,16.78-131.97,2.65-125.77-27.92,12.27-25.22-10.52-2.96-23.76"/><path id="Port_Bouet-5" class="cls-1" d="M1608.1,1328.79c43.93-31.88,84.25-69.95,102.03-58.52,29.93,19.26,35.83,25.18,42.81,29.27,0,0,.37-8.15,2.06-23.99-22.85-13.32,43.18-14.52,30.48-.44-8.44,9.36-4.82,33.59-5.93,38.28-.93,3.94,16.19,15.51,26.52,25.14,9.27,10.28,10.97,6.98,9.14,19.96-.99,7.04-12.38,5.3-18.32,1.77,1.77,35.3,2.88,106.76-.83,111.52-6.54,8.38-28.01,.73-73.37,.17-7.03-.09,2.67-60.89,1.7-80.27-.53-10.57-44.17-9.32-44.32,.47-.29,18.5,.42,64.17-1.2,82.6-20.29-1.99-66.11,10.22-70.46,3.57-8.64-13.23,16.78-131.97,2.65-125.77-27.92,12.27-25.22-10.52-2.96-23.76"/><path id="Port_Bouet-6" class="cls-1" d="M1608.1,1078.65c43.93-31.88,84.25-69.95,102.03-58.52,29.93,19.26,35.83,25.18,42.81,29.27,0,0,.37-8.15,2.06-23.99-22.85-13.32,43.18-14.52,30.48-.44-8.44,9.36-4.82,33.59-5.93,38.28-.93,3.94,16.19,15.51,26.52,25.14,9.27,10.28,10.97,6.98,9.14,19.96-.99,7.04-12.38,5.3-18.32,1.77,1.77,35.3,2.88,106.76-.83,111.52-6.54,8.38-28.01,.73-73.37,.17-7.03-.09,2.67-60.89,1.7-80.27-.53-10.57-44.17-9.32-44.32,.47-.29,18.5,.42,64.17-1.2,82.6-20.29-1.99-66.11,10.22-70.46,3.57-8.64-13.23,16.78-131.97,2.65-125.77-27.92,12.27-25.22-10.52-2.96-23.76"/><path id="Adjame-3" class="cls-4" d="M1608.1,828.51c43.93-31.88,84.25-69.95,102.03-58.52,29.93,19.26,35.83,25.18,42.81,29.27,0,0,.37-8.15,2.06-23.99-22.85-13.32,43.18-14.52,30.48-.44-8.44,9.36-4.82,33.59-5.93,38.28-.93,3.94,16.19,15.51,26.52,25.14,9.27,10.28,10.97,6.98,9.14,19.96-.99,7.04-12.38,5.3-18.32,1.77,1.77,35.3,2.88,106.76-.83,111.52-6.54,8.38-28.01,.73-73.37,.17-7.03-.09,2.67-60.89,1.7-80.27-.53-10.57-44.17-9.32-44.32,.47-.29,18.5,.42,64.17-1.2,82.6-20.29-1.99-66.11,10.22-70.46,3.57-8.64-13.23,16.78-131.97,2.65-125.77-27.92,12.27-25.22-10.52-2.96-23.76"/><path id="Adjame-4" class="cls-4" d="M1608.1,359.52c43.93-31.88,84.25-69.95,102.03-58.52,29.93,19.26,35.83,25.18,42.81,29.27,0,0,.37-8.15,2.06-23.99-22.85-13.32,43.18-14.52,30.48-.44-8.44,9.36-4.82,33.59-5.93,38.28-.93,3.94,16.19,15.51,26.52,25.14,9.27,10.28,10.97,6.98,9.14,19.96-.99,7.04-12.38,5.3-18.32,1.77,1.77,35.3,2.88,106.76-.83,111.52-6.54,8.38-28.01,.73-73.37,.17-7.03-.09,2.67-60.89,1.7-80.27-.53-10.57-44.17-9.32-44.32,.47-.29,18.5,.42,64.17-1.2,82.6-20.29-1.99-66.11,10.22-70.46,3.57-8.64-13.23,16.78-131.97,2.65-125.77-27.92,12.27-25.22-10.52-2.96-23.76"/><path id="Adjame-5" class="cls-4" d="M1608.1,594.01c43.93-31.88,84.25-69.95,102.03-58.52,29.93,19.26,35.83,25.18,42.81,29.27,0,0,.37-8.15,2.06-23.99-22.85-13.32,43.18-14.52,30.48-.44-8.44,9.36-4.82,33.59-5.93,38.28-.93,3.94,16.19,15.51,26.52,25.14,9.27,10.28,10.97,6.98,9.14,19.96-.99,7.04-12.38,5.3-18.32,1.77,1.77,35.3,2.88,106.76-.83,111.52-6.54,8.38-28.01,.73-73.37,.17-7.03-.09,2.67-60.89,1.7-80.27-.53-10.57-44.17-9.32-44.32,.47-.29,18.5,.42,64.17-1.2,82.6-20.29-1.99-66.11,10.22-70.46,3.57-8.64-13.23,16.78-131.97,2.65-125.77-27.92,12.27-25.22-10.52-2.96-23.76"/></g><g id="_2018"><path id="Cocody-11" class="cls-3" d="M1864.67,1560.54c43.93-31.88,84.25-69.95,102.03-58.52,29.93,19.26,35.83,25.18,42.81,29.27,0,0,.37-8.15,2.06-23.99-22.85-13.32,43.18-14.52,30.48-.44-8.44,9.36-4.82,33.59-5.93,38.28-.93,3.94,16.19,15.51,26.52,25.14,9.27,10.28,10.97,6.98,9.14,19.96-.99,7.04-12.38,5.3-18.32,1.77,1.77,35.3,2.88,106.76-.83,111.52-6.54,8.38-28.01,.73-73.37,.17-7.03-.09,2.67-60.89,1.7-80.27-.53-10.57-44.17-9.32-44.32,.47-.29,18.5,.42,64.17-1.2,82.6-20.29-1.99-66.11,10.22-70.46,3.57-8.64-13.23,16.78-131.97,2.65-125.77-27.92,12.27-25.22-10.52-2.96-23.76"/><path id="Port_Bouet-7" class="cls-1" d="M1864.67,1328.79c43.93-31.88,84.25-69.95,102.03-58.52,29.93,19.26,35.83,25.18,42.81,29.27,0,0,.37-8.15,2.06-23.99-22.85-13.32,43.18-14.52,30.48-.44-8.44,9.36-4.82,33.59-5.93,38.28-.93,3.94,16.19,15.51,26.52,25.14,9.27,10.28,10.97,6.98,9.14,19.96-.99,7.04-12.38,5.3-18.32,1.77,1.77,35.3,2.88,106.76-.83,111.52-6.54,8.38-28.01,.73-73.37,.17-7.03-.09,2.67-60.89,1.7-80.27-.53-10.57-44.17-9.32-44.32,.47-.29,18.5,.42,64.17-1.2,82.6-20.29-1.99-66.11,10.22-70.46,3.57-8.64-13.23,16.78-131.97,2.65-125.77-27.92,12.27-25.22-10.52-2.96-23.76"/><path id="Abobo-3" class="cls-7" d="M1864.67,1077.75c43.93-31.88,84.25-69.95,102.03-58.52,29.93,19.26,35.83,25.18,42.81,29.27,0,0,.37-8.15,2.06-23.99-22.85-13.32,43.18-14.52,30.48-.44-8.44,9.36-4.82,33.59-5.93,38.28-.93,3.94,16.19,15.51,26.52,25.14,9.27,10.28,10.97,6.98,9.14,19.96-.99,7.04-12.38,5.3-18.32,1.77,1.77,35.3,2.88,106.76-.83,111.52-6.54,8.38-28.01,.73-73.37,.17-7.03-.09,2.67-60.89,1.7-80.27-.53-10.57-44.17-9.32-44.32,.47-.29,18.5,.42,64.17-1.2,82.6-20.29-1.99-66.11,10.22-70.46,3.57-8.64-13.23,16.78-131.97,2.65-125.77-27.92,12.27-25.22-10.52-2.96-23.76"/><path id="Marcory-3" class="cls-8" d="M1864.67,828.51c43.93-31.88,84.25-69.95,102.03-58.52,29.93,19.26,35.83,25.18,42.81,29.27,0,0,.37-8.15,2.06-23.99-22.85-13.32,43.18-14.52,30.48-.44-8.44,9.36-4.82,33.59-5.93,38.28-.93,3.94,16.19,15.51,26.52,25.14,9.27,10.28,10.97,6.98,9.14,19.96-.99,7.04-12.38,5.3-18.32,1.77,1.77,35.3,2.88,106.76-.83,111.52-6.54,8.38-28.01,.73-73.37,.17-7.03-.09,2.67-60.89,1.7-80.27-.53-10.57-44.17-9.32-44.32,.47-.29,18.5,.42,64.17-1.2,82.6-20.29-1.99-66.11,10.22-70.46,3.57-8.64-13.23,16.78-131.97,2.65-125.77-27.92,12.27-25.22-10.52-2.96-23.76"/></g><g id="_2019"><path id="Koumassi-2" class="cls-6" d="M2121.24,1560.54c43.93-31.88,84.25-69.95,102.03-58.52,29.93,19.26,35.83,25.18,42.81,29.27,0,0,.37-8.15,2.06-23.99-22.85-13.32,43.18-14.52,30.48-.44-8.44,9.36-4.82,33.59-5.93,38.28-.93,3.94,16.19,15.51,26.52,25.14,9.27,10.28,10.97,6.98,9.14,19.96-.99,7.04-12.38,5.3-18.32,1.77,1.77,35.3,2.88,106.76-.83,111.52-6.54,8.38-28.01,.73-73.37,.17-7.03-.09,2.67-60.89,1.7-80.27-.53-10.57-44.17-9.32-44.32,.47-.29,18.5,.42,64.17-1.2,82.6-20.29-1.99-66.11,10.22-70.46,3.57-8.64-13.23,16.78-131.97,2.65-125.77-27.92,12.27-25.22-10.52-2.96-23.76"/><path id="Koumassi-3" class="cls-6" d="M2121.24,1328.79c43.93-31.88,84.25-69.95,102.03-58.52,29.93,19.26,35.83,25.18,42.81,29.27,0,0,.37-8.15,2.06-23.99-22.85-13.32,43.18-14.52,30.48-.44-8.44,9.36-4.82,33.59-5.93,38.28-.93,3.94,16.19,15.51,26.52,25.14,9.27,10.28,10.97,6.98,9.14,19.96-.99,7.04-12.38,5.3-18.32,1.77,1.77,35.3,2.88,106.76-.83,111.52-6.54,8.38-28.01,.73-73.37,.17-7.03-.09,2.67-60.89,1.7-80.27-.53-10.57-44.17-9.32-44.32,.47-.29,18.5,.42,64.17-1.2,82.6-20.29-1.99-66.11,10.22-70.46,3.57-8.64-13.23,16.78-131.97,2.65-125.77-27.92,12.27-25.22-10.52-2.96-23.76"/><path id="Treichville-3" class="cls-2" d="M2121.24,1087.37c43.93-31.88,84.25-69.95,102.03-58.52,29.93,19.26,35.83,25.18,42.81,29.27,0,0,.37-8.15,2.06-23.99-22.85-13.32,43.18-14.52,30.48-.44-8.44,9.36-4.82,33.59-5.93,38.28-.93,3.94,16.19,15.51,26.52,25.14,9.27,10.28,10.97,6.98,9.14,19.96-.99,7.04-12.38,5.3-18.32,1.77,1.77,35.3,2.88,106.76-.83,111.52-6.54,8.38-28.01,.73-73.37,.17-7.03-.09,2.67-60.89,1.7-80.27-.53-10.57-44.17-9.32-44.32,.47-.29,18.5,.42,64.17-1.2,82.6-20.29-1.99-66.11,10.22-70.46,3.57-8.64-13.23,16.78-131.97,2.65-125.77-27.92,12.27-25.22-10.52-2.96-23.76"/><path id="Treichville-4" class="cls-2" d="M2128.5,845.94c43.93-31.88,84.25-69.95,102.03-58.52,29.93,19.26,35.83,25.18,42.81,29.27,0,0,.37-8.15,2.06-23.99-22.85-13.32,43.18-14.52,30.48-.44-8.44,9.36-4.82,33.59-5.93,38.28-.93,3.94,16.19,15.51,26.52,25.14,9.27,10.28,10.97,6.98,9.14,19.96-.99,7.04-12.38,5.3-18.32,1.77,1.77,35.3,2.88,106.76-.83,111.52-6.54,8.38-28.01,.73-73.37,.17-7.03-.09,2.67-60.89,1.7-80.27-.53-10.57-44.17-9.32-44.32,.47-.29,18.5,.42,64.17-1.2,82.6-20.29-1.99-66.11,10.22-70.46,3.57-8.64-13.23,16.78-131.97,2.65-125.77-27.92,12.27-25.22-10.52-2.96-23.76"/></g><g id="_2020"><path id="Port_Bouet-8" class="cls-1" d="M2377.81,1555.46c43.93-31.88,84.25-69.95,102.03-58.52,29.93,19.26,35.83,25.18,42.81,29.27,0,0,.37-8.15,2.06-23.99-22.85-13.32,43.18-14.52,30.48-.44-8.44,9.36-4.82,33.59-5.93,38.28-.93,3.94,16.19,15.51,26.52,25.14,9.27,10.28,10.97,6.98,9.14,19.96-.99,7.04-12.38,5.3-18.32,1.77,1.77,35.3,2.88,106.76-.83,111.52-6.54,8.38-28.01,.73-73.37,.17-7.03-.09,2.67-60.89,1.7-80.27-.53-10.57-44.17-9.32-44.32,.47-.29,18.5,.42,64.17-1.2,82.6-20.29-1.99-66.11,10.22-70.46,3.57-8.64-13.23,16.78-131.97,2.65-125.77-27.92,12.27-25.22-10.52-2.96-23.76"/><path id="Abobo-4" class="cls-7" d="M2377.81,1312.79c43.93-31.88,84.25-69.95,102.03-58.52,29.93,19.26,35.83,25.18,42.81,29.27,0,0,.37-8.15,2.06-23.99-22.85-13.32,43.18-14.52,30.48-.44-8.44,9.36-4.82,33.59-5.93,38.28-.93,3.94,16.19,15.51,26.52,25.14,9.27,10.28,10.97,6.98,9.14,19.96-.99,7.04-12.38,5.3-18.32,1.77,1.77,35.3,2.88,106.76-.83,111.52-6.54,8.38-28.01,.73-73.37,.17-7.03-.09,2.67-60.89,1.7-80.27-.53-10.57-44.17-9.32-44.32,.47-.29,18.5,.42,64.17-1.2,82.6-20.29-1.99-66.11,10.22-70.46,3.57-8.64-13.23,16.78-131.97,2.65-125.77-27.92,12.27-25.22-10.52-2.96-23.76"/><path id="Koumassi-4" class="cls-6" d="M2377.81,1078.3c43.93-31.88,84.25-69.95,102.03-58.52,29.93,19.26,35.83,25.18,42.81,29.27,0,0,.37-8.15,2.06-23.99-22.85-13.32,43.18-14.52,30.48-.44-8.44,9.36-4.82,33.59-5.93,38.28-.93,3.94,16.19,15.51,26.52,25.14,9.27,10.28,10.97,6.98,9.14,19.96-.99,7.04-12.38,5.3-18.32,1.77,1.77,35.3,2.88,106.76-.83,111.52-6.54,8.38-28.01,.73-73.37,.17-7.03-.09,2.67-60.89,1.7-80.27-.53-10.57-44.17-9.32-44.32,.47-.29,18.5,.42,64.17-1.2,82.6-20.29-1.99-66.11,10.22-70.46,3.57-8.64-13.23,16.78-131.97,2.65-125.77-27.92,12.27-25.22-10.52-2.96-23.76"/></g><g id="_2021"><path id="Cocody-12" class="cls-3" d="M2634.38,1553.12c43.93-31.88,84.25-69.95,102.03-58.52,29.93,19.26,35.83,25.18,42.81,29.27,0,0,.37-8.15,2.06-23.99-22.85-13.32,43.18-14.52,30.48-.44-8.44,9.36-4.82,33.59-5.93,38.28-.93,3.94,16.19,15.51,26.52,25.14,9.27,10.28,10.97,6.98,9.14,19.96-.99,7.04-12.38,5.3-18.32,1.77,1.77,35.3,2.88,106.76-.83,111.52-6.54,8.38-28.01,.73-73.37,.17-7.03-.09,2.67-60.89,1.7-80.27-.53-10.57-44.17-9.32-44.32,.47-.29,18.5,.42,64.17-1.2,82.6-20.29-1.99-66.11,10.22-70.46,3.57-8.64-13.23,16.78-131.97,2.65-125.77-27.92,12.27-25.22-10.52-2.96-23.76"/><path id="Cocody-13" class="cls-3" d="M2634.38,1310.45c43.93-31.88,84.25-69.95,102.03-58.52,29.93,19.26,35.83,25.18,42.81,29.27,0,0,.37-8.15,2.06-23.99-22.85-13.32,43.18-14.52,30.48-.44-8.44,9.36-4.82,33.59-5.93,38.28-.93,3.94,16.19,15.51,26.52,25.14,9.27,10.28,10.97,6.98,9.14,19.96-.99,7.04-12.38,5.3-18.32,1.77,1.77,35.3,2.88,106.76-.83,111.52-6.54,8.38-28.01,.73-73.37,.17-7.03-.09,2.67-60.89,1.7-80.27-.53-10.57-44.17-9.32-44.32,.47-.29,18.5,.42,64.17-1.2,82.6-20.29-1.99-66.11,10.22-70.46,3.57-8.64-13.23,16.78-131.97,2.65-125.77-27.92,12.27-25.22-10.52-2.96-23.76"/></g><g id="Houses"><path id="Attecoube-2" class="cls-9" d="M1351.53,1078.3c43.93-31.88,84.25-69.95,102.03-58.52,29.93,19.26,35.83,25.18,42.81,29.27,0,0,.37-8.15,2.06-23.99-22.85-13.32,43.18-14.52,30.48-.44-8.44,9.36-4.82,33.59-5.93,38.28-.93,3.94,16.19,15.51,26.52,25.14,9.27,10.28,10.97,6.98,9.14,19.96-.99,7.04-12.38,5.3-18.32,1.77,1.77,35.3,2.88,106.76-.83,111.52-6.54,8.38-28.01,.73-73.37,.17-7.03-.09,2.67-60.89,1.7-80.27-.53-10.57-44.17-9.32-44.32,.47-.29,18.5,.42,64.17-1.2,82.6-20.29-1.99-66.11,10.22-70.46,3.57-8.64-13.23,16.78-131.97,2.65-125.77-27.92,12.27-25.22-10.52-2.96-23.76"/><path id="Yopougon-2" class="cls-5" d="M1351.53,828.51c43.93-31.88,84.25-69.95,102.03-58.52,29.93,19.26,35.83,25.18,42.81,29.27,0,0,.37-8.15,2.06-23.99-22.85-13.32,43.18-14.52,30.48-.44-8.44,9.36-4.82,33.59-5.93,38.28-.93,3.94,16.19,15.51,26.52,25.14,9.27,10.28,10.97,6.98,9.14,19.96-.99,7.04-12.38,5.3-18.32,1.77,1.77,35.3,2.88,106.76-.83,111.52-6.54,8.38-28.01,.73-73.37,.17-7.03-.09,2.67-60.89,1.7-80.27-.53-10.57-44.17-9.32-44.32,.47-.29,18.5,.42,64.17-1.2,82.6-20.29-1.99-66.11,10.22-70.46,3.57-8.64-13.23,16.78-131.97,2.65-125.77-27.92,12.27-25.22-10.52-2.96-23.76"/></g></svg>