<?xml version="1.0" encoding="UTF-8"?><svg id="Municipalities-Houses" xmlns="http://www.w3.org/2000/svg" viewBox="0 0 4549.87 3472.48"><defs><style>.cls-1{fill:#dfb6af;}.cls-1,.cls-2,.cls-3,.cls-4,.cls-5,.cls-6,.cls-7,.cls-8,.cls-9{stroke:#000;stroke-miterlimit:10;stroke-width:10px;}.cls-2{fill:#c7988c;}.cls-3{fill:#A37272;}.cls-4{fill:#dfc9af;}.cls-5{fill:#D38879;}.cls-6{fill:#E0A47C;}.cls-7{fill:#af7e5d;}.cls-8{fill:#c0aa94;}.cls-9{fill:#a48271;}.cls-10{letter-spacing:-.07em;}.cls-11{letter-spacing:0em;}.cls-12{letter-spacing:-.06em;}.cls-13{letter-spacing:0em;}.cls-14{font-family:Arial-BoldMT, Arial;font-size:108.38px;font-weight:700;}</style></defs><g id="Attecoube"><path id="Attecoube-2" class="cls-9" d="M4116.32,3033.84c43.93-31.88,84.25-69.95,102.03-58.52,29.93,19.26,35.83,25.18,42.81,29.27,0,0,.37-8.15,2.06-23.99-22.85-13.32,43.18-14.52,30.48-.44-8.44,9.36-4.82,33.59-5.93,38.28-.93,3.94,16.19,15.51,26.52,25.14,9.27,10.28,10.97,6.98,9.14,19.96-.99,7.04-12.38,5.3-18.32,1.77,1.77,35.3,2.88,106.76-.83,111.52-6.54,8.38-28.01,.73-73.37,.17-7.03-.09,2.67-60.89,1.7-80.27-.53-10.57-44.17-9.32-44.32,.47-.29,18.5,.42,64.17-1.2,82.6-20.29-1.99-66.11,10.22-70.46,3.57-8.64-13.23,16.78-131.97,2.65-125.77-27.92,12.27-25.22-10.52-2.96-23.76"/></g><g id="Yopougon"><path id="Yopougon-2" class="cls-5" d="M3621.83,3033.84c43.93-31.88,84.25-69.95,102.03-58.52,29.93,19.26,35.83,25.18,42.81,29.27,0,0,.37-8.15,2.06-23.99-22.85-13.32,43.18-14.52,30.48-.44-8.44,9.36-4.82,33.59-5.93,38.28-.93,3.94,16.19,15.51,26.52,25.14,9.27,10.28,10.97,6.98,9.14,19.96-.99,7.04-12.38,5.3-18.32,1.77,1.77,35.3,2.88,106.76-.83,111.52-6.54,8.38-28.01,.73-73.37,.17-7.03-.09,2.67-60.89,1.7-80.27-.53-10.57-44.17-9.32-44.32,.47-.29,18.5,.42,64.17-1.2,82.6-20.29-1.99-66.11,10.22-70.46,3.57-8.64-13.23,16.78-131.97,2.65-125.77-27.92,12.27-25.22-10.52-2.96-23.76"/></g><g id="Abobo"><path id="Abobo-2" class="cls-7" d="M3127.34,2799.35c43.93-31.88,84.25-69.95,102.03-58.52,29.93,19.26,35.83,25.18,42.81,29.27,0,0,.37-8.15,2.06-23.99-22.85-13.32,43.18-14.52,30.48-.44-8.44,9.36-4.82,33.59-5.93,38.28-.93,3.94,16.19,15.51,26.52,25.14,9.27,10.28,10.97,6.98,9.14,19.96-.99,7.04-12.38,5.3-18.32,1.77,1.77,35.3,2.88,106.76-.83,111.52-6.54,8.38-28.01,.73-73.37,.17-7.03-.09,2.67-60.89,1.7-80.27-.53-10.57-44.17-9.32-44.32,.47-.29,18.5,.42,64.17-1.2,82.6-20.29-1.99-66.11,10.22-70.46,3.57-8.64-13.23,16.78-131.97,2.65-125.77-27.92,12.27-25.22-10.52-2.96-23.76"/><path id="Abobo-3" class="cls-7" d="M3127.34,2549.2c43.93-31.88,84.25-69.95,102.03-58.52,29.93,19.26,35.83,25.18,42.81,29.27,0,0,.37-8.15,2.06-23.99-22.85-13.32,43.18-14.52,30.48-.44-8.44,9.36-4.82,33.59-5.93,38.28-.93,3.94,16.19,15.51,26.52,25.14,9.27,10.28,10.97,6.98,9.14,19.96-.99,7.04-12.38,5.3-18.32,1.77,1.77,35.3,2.88,106.76-.83,111.52-6.54,8.38-28.01,.73-73.37,.17-7.03-.09,2.67-60.89,1.7-80.27-.53-10.57-44.17-9.32-44.32,.47-.29,18.5,.42,64.17-1.2,82.6-20.29-1.99-66.11,10.22-70.46,3.57-8.64-13.23,16.78-131.97,2.65-125.77-27.92,12.27-25.22-10.52-2.96-23.76"/><path id="Abobo-4" class="cls-7" d="M3127.34,3033.84c43.93-31.88,84.25-69.95,102.03-58.52,29.93,19.26,35.83,25.18,42.81,29.27,0,0,.37-8.15,2.06-23.99-22.85-13.32,43.18-14.52,30.48-.44-8.44,9.36-4.82,33.59-5.93,38.28-.93,3.94,16.19,15.51,26.52,25.14,9.27,10.28,10.97,6.98,9.14,19.96-.99,7.04-12.38,5.3-18.32,1.77,1.77,35.3,2.88,106.76-.83,111.52-6.54,8.38-28.01,.73-73.37,.17-7.03-.09,2.67-60.89,1.7-80.27-.53-10.57-44.17-9.32-44.32,.47-.29,18.5,.42,64.17-1.2,82.6-20.29-1.99-66.11,10.22-70.46,3.57-8.64-13.23,16.78-131.97,2.65-125.77-27.92,12.27-25.22-10.52-2.96-23.76"/></g><g id="Treichville"><path id="Treichville-2" class="cls-2" d="M2632.85,2799.91c43.93-31.88,84.25-69.95,102.03-58.52,29.93,19.26,35.83,25.18,42.81,29.27,0,0,.37-8.15,2.06-23.99-22.85-13.32,43.18-14.52,30.48-.44-8.44,9.36-4.82,33.59-5.93,38.28-.93,3.94,16.19,15.51,26.52,25.14,9.27,10.28,10.97,6.98,9.14,19.96-.99,7.04-12.38,5.3-18.32,1.77,1.77,35.3,2.88,106.76-.83,111.52-6.54,8.38-28.01,.73-73.37,.17-7.03-.09,2.67-60.89,1.7-80.27-.53-10.57-44.17-9.32-44.32,.47-.29,18.5,.42,64.17-1.2,82.6-20.29-1.99-66.11,10.22-70.46,3.57-8.64-13.23,16.78-131.97,2.65-125.77-27.92,12.27-25.22-10.52-2.96-23.76"/><path id="Treichville-3" class="cls-2" d="M2632.85,2549.77c43.93-31.88,84.25-69.95,102.03-58.52,29.93,19.26,35.83,25.18,42.81,29.27,0,0,.37-8.15,2.06-23.99-22.85-13.32,43.18-14.52,30.48-.44-8.44,9.36-4.82,33.59-5.93,38.28-.93,3.94,16.19,15.51,26.52,25.14,9.27,10.28,10.97,6.98,9.14,19.96-.99,7.04-12.38,5.3-18.32,1.77,1.77,35.3,2.88,106.76-.83,111.52-6.54,8.38-28.01,.73-73.37,.17-7.03-.09,2.67-60.89,1.7-80.27-.53-10.57-44.17-9.32-44.32,.47-.29,18.5,.42,64.17-1.2,82.6-20.29-1.99-66.11,10.22-70.46,3.57-8.64-13.23,16.78-131.97,2.65-125.77-27.92,12.27-25.22-10.52-2.96-23.76"/><path id="Treichville-4" class="cls-2" d="M2632.85,3034.4c43.93-31.88,84.25-69.95,102.03-58.52,29.93,19.26,35.83,25.18,42.81,29.27,0,0,.37-8.15,2.06-23.99-22.85-13.32,43.18-14.52,30.48-.44-8.44,9.36-4.82,33.59-5.93,38.28-.93,3.94,16.19,15.51,26.52,25.14,9.27,10.28,10.97,6.98,9.14,19.96-.99,7.04-12.38,5.3-18.32,1.77,1.77,35.3,2.88,106.76-.83,111.52-6.54,8.38-28.01,.73-73.37,.17-7.03-.09,2.67-60.89,1.7-80.27-.53-10.57-44.17-9.32-44.32,.47-.29,18.5,.42,64.17-1.2,82.6-20.29-1.99-66.11,10.22-70.46,3.57-8.64-13.23,16.78-131.97,2.65-125.77-27.92,12.27-25.22-10.52-2.96-23.76"/></g><g id="Marcory"><path id="Marcory-2" class="cls-8" d="M2138.36,2798.7c43.93-31.88,84.25-69.95,102.03-58.52,29.93,19.26,35.83,25.18,42.81,29.27,0,0,.37-8.15,2.06-23.99-22.85-13.32,43.18-14.52,30.48-.44-8.44,9.36-4.82,33.59-5.93,38.28-.93,3.94,16.19,15.51,26.52,25.14,9.27,10.28,10.97,6.98,9.14,19.96-.99,7.04-12.38,5.3-18.32,1.77,1.77,35.3,2.88,106.76-.83,111.52-6.54,8.38-28.01,.73-73.37,.17-7.03-.09,2.67-60.89,1.7-80.27-.53-10.57-44.17-9.32-44.32,.47-.29,18.5,.42,64.17-1.2,82.6-20.29-1.99-66.11,10.22-70.46,3.57-8.64-13.23,16.78-131.97,2.65-125.77-27.92,12.27-25.22-10.52-2.96-23.76"/><path id="Marcory-3" class="cls-8" d="M2138.36,2548.56c43.93-31.88,84.25-69.95,102.03-58.52,29.93,19.26,35.83,25.18,42.81,29.27,0,0,.37-8.15,2.06-23.99-22.85-13.32,43.18-14.52,30.48-.44-8.44,9.36-4.82,33.59-5.93,38.28-.93,3.94,16.19,15.51,26.52,25.14,9.27,10.28,10.97,6.98,9.14,19.96-.99,7.04-12.38,5.3-18.32,1.77,1.77,35.3,2.88,106.76-.83,111.52-6.54,8.38-28.01,.73-73.37,.17-7.03-.09,2.67-60.89,1.7-80.27-.53-10.57-44.17-9.32-44.32,.47-.29,18.5,.42,64.17-1.2,82.6-20.29-1.99-66.11,10.22-70.46,3.57-8.64-13.23,16.78-131.97,2.65-125.77-27.92,12.27-25.22-10.52-2.96-23.76"/><path id="Marcory-4" class="cls-8" d="M2138.36,3033.19c43.93-31.88,84.25-69.95,102.03-58.52,29.93,19.26,35.83,25.18,42.81,29.27,0,0,.37-8.15,2.06-23.99-22.85-13.32,43.18-14.52,30.48-.44-8.44,9.36-4.82,33.59-5.93,38.28-.93,3.94,16.19,15.51,26.52,25.14,9.27,10.28,10.97,6.98,9.14,19.96-.99,7.04-12.38,5.3-18.32,1.77,1.77,35.3,2.88,106.76-.83,111.52-6.54,8.38-28.01,.73-73.37,.17-7.03-.09,2.67-60.89,1.7-80.27-.53-10.57-44.17-9.32-44.32,.47-.29,18.5,.42,64.17-1.2,82.6-20.29-1.99-66.11,10.22-70.46,3.57-8.64-13.23,16.78-131.97,2.65-125.77-27.92,12.27-25.22-10.52-2.96-23.76"/></g><g id="Koumassi"><path id="Koumassi-2" class="cls-6" d="M1643.87,2799.08c43.93-31.88,84.25-69.95,102.03-58.52,29.93,19.26,35.83,25.18,42.81,29.27,0,0,.37-8.15,2.06-23.99-22.85-13.32,43.18-14.52,30.48-.44-8.44,9.36-4.82,33.59-5.93,38.28-.93,3.94,16.19,15.51,26.52,25.14,9.27,10.28,10.97,6.98,9.14,19.96-.99,7.04-12.38,5.3-18.32,1.77,1.77,35.3,2.88,106.76-.83,111.52-6.54,8.38-28.01,.73-73.37,.17-7.03-.09,2.67-60.89,1.7-80.27-.53-10.57-44.17-9.32-44.32,.47-.29,18.5,.42,64.17-1.2,82.6-20.29-1.99-66.11,10.22-70.46,3.57-8.64-13.23,16.78-131.97,2.65-125.77-27.92,12.27-25.22-10.52-2.96-23.76"/><path id="Koumassi-3" class="cls-6" d="M1643.87,2548.94c43.93-31.88,84.25-69.95,102.03-58.52,29.93,19.26,35.83,25.18,42.81,29.27,0,0,.37-8.15,2.06-23.99-22.85-13.32,43.18-14.52,30.48-.44-8.44,9.36-4.82,33.59-5.93,38.28-.93,3.94,16.19,15.51,26.52,25.14,9.27,10.28,10.97,6.98,9.14,19.96-.99,7.04-12.38,5.3-18.32,1.77,1.77,35.3,2.88,106.76-.83,111.52-6.54,8.38-28.01,.73-73.37,.17-7.03-.09,2.67-60.89,1.7-80.27-.53-10.57-44.17-9.32-44.32,.47-.29,18.5,.42,64.17-1.2,82.6-20.29-1.99-66.11,10.22-70.46,3.57-8.64-13.23,16.78-131.97,2.65-125.77-27.92,12.27-25.22-10.52-2.96-23.76"/><path id="Koumassi-4" class="cls-6" d="M1643.87,3033.58c43.93-31.88,84.25-69.95,102.03-58.52,29.93,19.26,35.83,25.18,42.81,29.27,0,0,.37-8.15,2.06-23.99-22.85-13.32,43.18-14.52,30.48-.44-8.44,9.36-4.82,33.59-5.93,38.28-.93,3.94,16.19,15.51,26.52,25.14,9.27,10.28,10.97,6.98,9.14,19.96-.99,7.04-12.38,5.3-18.32,1.77,1.77,35.3,2.88,106.76-.83,111.52-6.54,8.38-28.01,.73-73.37,.17-7.03-.09,2.67-60.89,1.7-80.27-.53-10.57-44.17-9.32-44.32,.47-.29,18.5,.42,64.17-1.2,82.6-20.29-1.99-66.11,10.22-70.46,3.57-8.64-13.23,16.78-131.97,2.65-125.77-27.92,12.27-25.22-10.52-2.96-23.76"/></g><g id="Adjame"><path id="Adjame-2" class="cls-4" d="M1149.38,2800.07c43.93-31.88,84.25-69.95,102.03-58.52,29.93,19.26,35.83,25.18,42.81,29.27,0,0,.37-8.15,2.06-23.99-22.85-13.32,43.18-14.52,30.48-.44-8.44,9.36-4.82,33.59-5.93,38.28-.93,3.94,16.19,15.51,26.52,25.14,9.27,10.28,10.97,6.98,9.14,19.96-.99,7.04-12.38,5.3-18.32,1.77,1.77,35.3,2.88,106.76-.83,111.52-6.54,8.38-28.01,.73-73.37,.17-7.03-.09,2.67-60.89,1.7-80.27-.53-10.57-44.17-9.32-44.32,.47-.29,18.5,.42,64.17-1.2,82.6-20.29-1.99-66.11,10.22-70.46,3.57-8.64-13.23,16.78-131.97,2.65-125.77-27.92,12.27-25.22-10.52-2.96-23.76"/><path id="Adjame-3" class="cls-4" d="M1149.38,2549.92c43.93-31.88,84.25-69.95,102.03-58.52,29.93,19.26,35.83,25.18,42.81,29.27,0,0,.37-8.15,2.06-23.99-22.85-13.32,43.18-14.52,30.48-.44-8.44,9.36-4.82,33.59-5.93,38.28-.93,3.94,16.19,15.51,26.52,25.14,9.27,10.28,10.97,6.98,9.14,19.96-.99,7.04-12.38,5.3-18.32,1.77,1.77,35.3,2.88,106.76-.83,111.52-6.54,8.38-28.01,.73-73.37,.17-7.03-.09,2.67-60.89,1.7-80.27-.53-10.57-44.17-9.32-44.32,.47-.29,18.5,.42,64.17-1.2,82.6-20.29-1.99-66.11,10.22-70.46,3.57-8.64-13.23,16.78-131.97,2.65-125.77-27.92,12.27-25.22-10.52-2.96-23.76"/><path id="Adjame-4" class="cls-4" d="M1149.38,2315.43c43.93-31.88,84.25-69.95,102.03-58.52,29.93,19.26,35.83,25.18,42.81,29.27,0,0,.37-8.15,2.06-23.99-22.85-13.32,43.18-14.52,30.48-.44-8.44,9.36-4.82,33.59-5.93,38.28-.93,3.94,16.19,15.51,26.52,25.14,9.27,10.28,10.97,6.98,9.14,19.96-.99,7.04-12.38,5.3-18.32,1.77,1.77,35.3,2.88,106.76-.83,111.52-6.54,8.38-28.01,.73-73.37,.17-7.03-.09,2.67-60.89,1.7-80.27-.53-10.57-44.17-9.32-44.32,.47-.29,18.5,.42,64.17-1.2,82.6-20.29-1.99-66.11,10.22-70.46,3.57-8.64-13.23,16.78-131.97,2.65-125.77-27.92,12.27-25.22-10.52-2.96-23.76"/><path id="Adjame-5" class="cls-4" d="M1149.38,3034.56c43.93-31.88,84.25-69.95,102.03-58.52,29.93,19.26,35.83,25.18,42.81,29.27,0,0,.37-8.15,2.06-23.99-22.85-13.32,43.18-14.52,30.48-.44-8.44,9.36-4.82,33.59-5.93,38.28-.93,3.94,16.19,15.51,26.52,25.14,9.27,10.28,10.97,6.98,9.14,19.96-.99,7.04-12.38,5.3-18.32,1.77,1.77,35.3,2.88,106.76-.83,111.52-6.54,8.38-28.01,.73-73.37,.17-7.03-.09,2.67-60.89,1.7-80.27-.53-10.57-44.17-9.32-44.32,.47-.29,18.5,.42,64.17-1.2,82.6-20.29-1.99-66.11,10.22-70.46,3.57-8.64-13.23,16.78-131.97,2.65-125.77-27.92,12.27-25.22-10.52-2.96-23.76"/></g><g id="Port_Bouet"><path id="Port_Bouet-2" class="cls-1" d="M654.89,2800.34c43.93-31.88,84.25-69.95,102.03-58.52,29.93,19.26,35.83,25.18,42.81,29.27,0,0,.37-8.15,2.06-23.99-22.85-13.32,43.18-14.52,30.48-.44-8.44,9.36-4.82,33.59-5.93,38.28-.93,3.94,16.19,15.51,26.52,25.14,9.27,10.28,10.97,6.98,9.14,19.96-.99,7.04-12.38,5.3-18.32,1.77,1.77,35.3,2.88,106.76-.83,111.52-6.54,8.38-28.01,.73-73.37,.17-7.03-.09,2.67-60.89,1.7-80.27-.53-10.57-44.17-9.32-44.32,.47-.29,18.5,.42,64.17-1.2,82.6-20.29-1.99-66.11,10.22-70.46,3.57-8.64-13.23,16.78-131.97,2.65-125.77-27.92,12.27-25.22-10.52-2.96-23.76"/><path id="Port_Bouet-3" class="cls-1" d="M654.89,2550.19c43.93-31.88,84.25-69.95,102.03-58.52,29.93,19.26,35.83,25.18,42.81,29.27,0,0,.37-8.15,2.06-23.99-22.85-13.32,43.18-14.52,30.48-.44-8.44,9.36-4.82,33.59-5.93,38.28-.93,3.94,16.19,15.51,26.52,25.14,9.27,10.28,10.97,6.98,9.14,19.96-.99,7.04-12.38,5.3-18.32,1.77,1.77,35.3,2.88,106.76-.83,111.52-6.54,8.38-28.01,.73-73.37,.17-7.03-.09,2.67-60.89,1.7-80.27-.53-10.57-44.17-9.32-44.32,.47-.29,18.5,.42,64.17-1.2,82.6-20.29-1.99-66.11,10.22-70.46,3.57-8.64-13.23,16.78-131.97,2.65-125.77-27.92,12.27-25.22-10.52-2.96-23.76"/><path id="Port_Bouet-4" class="cls-1" d="M654.89,2315.7c43.93-31.88,84.25-69.95,102.03-58.52,29.93,19.26,35.83,25.18,42.81,29.27,0,0,.37-8.15,2.06-23.99-22.85-13.32,43.18-14.52,30.48-.44-8.44,9.36-4.82,33.59-5.93,38.28-.93,3.94,16.19,15.51,26.52,25.14,9.27,10.28,10.97,6.98,9.14,19.96-.99,7.04-12.38,5.3-18.32,1.77,1.77,35.3,2.88,106.76-.83,111.52-6.54,8.38-28.01,.73-73.37,.17-7.03-.09,2.67-60.89,1.7-80.27-.53-10.57-44.17-9.32-44.32,.47-.29,18.5,.42,64.17-1.2,82.6-20.29-1.99-66.11,10.22-70.46,3.57-8.64-13.23,16.78-131.97,2.65-125.77-27.92,12.27-25.22-10.52-2.96-23.76"/><path id="Port_Bouet-5" class="cls-1" d="M654.89,3034.83c43.93-31.88,84.25-69.95,102.03-58.52,29.93,19.26,35.83,25.18,42.81,29.27,0,0,.37-8.15,2.06-23.99-22.85-13.32,43.18-14.52,30.48-.44-8.44,9.36-4.82,33.59-5.93,38.28-.93,3.94,16.19,15.51,26.52,25.14,9.27,10.28,10.97,6.98,9.14,19.96-.99,7.04-12.38,5.3-18.32,1.77,1.77,35.3,2.88,106.76-.83,111.52-6.54,8.38-28.01,.73-73.37,.17-7.03-.09,2.67-60.89,1.7-80.27-.53-10.57-44.17-9.32-44.32,.47-.29,18.5,.42,64.17-1.2,82.6-20.29-1.99-66.11,10.22-70.46,3.57-8.64-13.23,16.78-131.97,2.65-125.77-27.92,12.27-25.22-10.52-2.96-23.76"/><path id="Port_Bouet-6" class="cls-1" d="M654.89,1846.71c43.93-31.88,84.25-69.95,102.03-58.52,29.93,19.26,35.83,25.18,42.81,29.27,0,0,.37-8.15,2.06-23.99-22.85-13.32,43.18-14.52,30.48-.44-8.44,9.36-4.82,33.59-5.93,38.28-.93,3.94,16.19,15.51,26.52,25.14,9.27,10.28,10.97,6.98,9.14,19.96-.99,7.04-12.38,5.3-18.32,1.77,1.77,35.3,2.88,106.76-.83,111.52-6.54,8.38-28.01,.73-73.37,.17-7.03-.09,2.67-60.89,1.7-80.27-.53-10.57-44.17-9.32-44.32,.47-.29,18.5,.42,64.17-1.2,82.6-20.29-1.99-66.11,10.22-70.46,3.57-8.64-13.23,16.78-131.97,2.65-125.77-27.92,12.27-25.22-10.52-2.96-23.76"/><path id="Port_Bouet-7" class="cls-1" d="M654.89,1596.57c43.93-31.88,84.25-69.95,102.03-58.52,29.93,19.26,35.83,25.18,42.81,29.27,0,0,.37-8.15,2.06-23.99-22.85-13.32,43.18-14.52,30.48-.44-8.44,9.36-4.82,33.59-5.93,38.28-.93,3.94,16.19,15.51,26.52,25.14,9.27,10.28,10.97,6.98,9.14,19.96-.99,7.04-12.38,5.3-18.32,1.77,1.77,35.3,2.88,106.76-.83,111.52-6.54,8.38-28.01,.73-73.37,.17-7.03-.09,2.67-60.89,1.7-80.27-.53-10.57-44.17-9.32-44.32,.47-.29,18.5,.42,64.17-1.2,82.6-20.29-1.99-66.11,10.22-70.46,3.57-8.64-13.23,16.78-131.97,2.65-125.77-27.92,12.27-25.22-10.52-2.96-23.76"/><path id="Port_Bouet-8" class="cls-1" d="M654.89,2081.21c43.93-31.88,84.25-69.95,102.03-58.52,29.93,19.26,35.83,25.18,42.81,29.27,0,0,.37-8.15,2.06-23.99-22.85-13.32,43.18-14.52,30.48-.44-8.44,9.36-4.82,33.59-5.93,38.28-.93,3.94,16.19,15.51,26.52,25.14,9.27,10.28,10.97,6.98,9.14,19.96-.99,7.04-12.38,5.3-18.32,1.77,1.77,35.3,2.88,106.76-.83,111.52-6.54,8.38-28.01,.73-73.37,.17-7.03-.09,2.67-60.89,1.7-80.27-.53-10.57-44.17-9.32-44.32,.47-.29,18.5,.42,64.17-1.2,82.6-20.29-1.99-66.11,10.22-70.46,3.57-8.64-13.23,16.78-131.97,2.65-125.77-27.92,12.27-25.22-10.52-2.96-23.76"/></g><g id="Cocody"><path id="Cocody-2" class="cls-3" d="M170.7,2798.63c43.93-31.88,84.25-69.95,102.03-58.52,29.93,19.26,35.83,25.18,42.81,29.27,0,0,.37-8.15,2.06-23.99-22.85-13.32,43.18-14.52,30.48-.44-8.44,9.36-4.82,33.59-5.93,38.28-.93,3.94,16.19,15.51,26.52,25.14,9.27,10.28,10.97,6.98,9.14,19.96-.99,7.04-12.38,5.3-18.32,1.77,1.77,35.3,2.88,106.76-.83,111.52-6.54,8.38-28.01,.73-73.37,.17-7.03-.09,2.67-60.89,1.7-80.27-.53-10.57-44.17-9.32-44.32,.47-.29,18.5,.42,64.17-1.2,82.6-20.29-1.99-66.11,10.22-70.46,3.57-8.64-13.23,16.78-131.97,2.65-125.77-27.92,12.27-25.22-10.52-2.96-23.76"/><path id="Cocody-3" class="cls-3" d="M170.7,2548.49c43.93-31.88,84.25-69.95,102.03-58.52,29.93,19.26,35.83,25.18,42.81,29.27,0,0,.37-8.15,2.06-23.99-22.85-13.32,43.18-14.52,30.48-.44-8.44,9.36-4.82,33.59-5.93,38.28-.93,3.94,16.19,15.51,26.52,25.14,9.27,10.28,10.97,6.98,9.14,19.96-.99,7.04-12.38,5.3-18.32,1.77,1.77,35.3,2.88,106.76-.83,111.52-6.54,8.38-28.01,.73-73.37,.17-7.03-.09,2.67-60.89,1.7-80.27-.53-10.57-44.17-9.32-44.32,.47-.29,18.5,.42,64.17-1.2,82.6-20.29-1.99-66.11,10.22-70.46,3.57-8.64-13.23,16.78-131.97,2.65-125.77-27.92,12.27-25.22-10.52-2.96-23.76"/><path id="Cocody-4" class="cls-3" d="M170.7,2313.99c43.93-31.88,84.25-69.95,102.03-58.52,29.93,19.26,35.83,25.18,42.81,29.27,0,0,.37-8.15,2.06-23.99-22.85-13.32,43.18-14.52,30.48-.44-8.44,9.36-4.82,33.59-5.93,38.28-.93,3.94,16.19,15.51,26.52,25.14,9.27,10.28,10.97,6.98,9.14,19.96-.99,7.04-12.38,5.3-18.32,1.77,1.77,35.3,2.88,106.76-.83,111.52-6.54,8.38-28.01,.73-73.37,.17-7.03-.09,2.67-60.89,1.7-80.27-.53-10.57-44.17-9.32-44.32,.47-.29,18.5,.42,64.17-1.2,82.6-20.29-1.99-66.11,10.22-70.46,3.57-8.64-13.23,16.78-131.97,2.65-125.77-27.92,12.27-25.22-10.52-2.96-23.76"/><path id="Cocody-5" class="cls-3" d="M170.7,3033.12c43.93-31.88,84.25-69.95,102.03-58.52,29.93,19.26,35.83,25.18,42.81,29.27,0,0,.37-8.15,2.06-23.99-22.85-13.32,43.18-14.52,30.48-.44-8.44,9.36-4.82,33.59-5.93,38.28-.93,3.94,16.19,15.51,26.52,25.14,9.27,10.28,10.97,6.98,9.14,19.96-.99,7.04-12.38,5.3-18.32,1.77,1.77,35.3,2.88,106.76-.83,111.52-6.54,8.38-28.01,.73-73.37,.17-7.03-.09,2.67-60.89,1.7-80.27-.53-10.57-44.17-9.32-44.32,.47-.29,18.5,.42,64.17-1.2,82.6-20.29-1.99-66.11,10.22-70.46,3.57-8.64-13.23,16.78-131.97,2.65-125.77-27.92,12.27-25.22-10.52-2.96-23.76"/><path id="Cocody-6" class="cls-3" d="M170.7,1845.01c43.93-31.88,84.25-69.95,102.03-58.52,29.93,19.26,35.83,25.18,42.81,29.27,0,0,.37-8.15,2.06-23.99-22.85-13.32,43.18-14.52,30.48-.44-8.44,9.36-4.82,33.59-5.93,38.28-.93,3.94,16.19,15.51,26.52,25.14,9.27,10.28,10.97,6.98,9.14,19.96-.99,7.04-12.38,5.3-18.32,1.77,1.77,35.3,2.88,106.76-.83,111.52-6.54,8.38-28.01,.73-73.37,.17-7.03-.09,2.67-60.89,1.7-80.27-.53-10.57-44.17-9.32-44.32,.47-.29,18.5,.42,64.17-1.2,82.6-20.29-1.99-66.11,10.22-70.46,3.57-8.64-13.23,16.78-131.97,2.65-125.77-27.92,12.27-25.22-10.52-2.96-23.76"/><path id="Cocody-7" class="cls-3" d="M170.7,1594.86c43.93-31.88,84.25-69.95,102.03-58.52,29.93,19.26,35.83,25.18,42.81,29.27,0,0,.37-8.15,2.06-23.99-22.85-13.32,43.18-14.52,30.48-.44-8.44,9.36-4.82,33.59-5.93,38.28-.93,3.94,16.19,15.51,26.52,25.14,9.27,10.28,10.97,6.98,9.14,19.96-.99,7.04-12.38,5.3-18.32,1.77,1.77,35.3,2.88,106.76-.83,111.52-6.54,8.38-28.01,.73-73.37,.17-7.03-.09,2.67-60.89,1.7-80.27-.53-10.57-44.17-9.32-44.32,.47-.29,18.5,.42,64.17-1.2,82.6-20.29-1.99-66.11,10.22-70.46,3.57-8.64-13.23,16.78-131.97,2.65-125.77-27.92,12.27-25.22-10.52-2.96-23.76"/><path id="Cocody-8" class="cls-3" d="M170.7,2079.5c43.93-31.88,84.25-69.95,102.03-58.52,29.93,19.26,35.83,25.18,42.81,29.27,0,0,.37-8.15,2.06-23.99-22.85-13.32,43.18-14.52,30.48-.44-8.44,9.36-4.82,33.59-5.93,38.28-.93,3.94,16.19,15.51,26.52,25.14,9.27,10.28,10.97,6.98,9.14,19.96-.99,7.04-12.38,5.3-18.32,1.77,1.77,35.3,2.88,106.76-.83,111.52-6.54,8.38-28.01,.73-73.37,.17-7.03-.09,2.67-60.89,1.7-80.27-.53-10.57-44.17-9.32-44.32,.47-.29,18.5,.42,64.17-1.2,82.6-20.29-1.99-66.11,10.22-70.46,3.57-8.64-13.23,16.78-131.97,2.65-125.77-27.92,12.27-25.22-10.52-2.96-23.76"/><path id="Cocody-9" class="cls-3" d="M170.69,1120.39c43.93-31.88,84.25-69.95,102.03-58.52,29.93,19.26,35.83,25.18,42.81,29.27,0,0,.37-8.15,2.06-23.99-22.85-13.32,43.18-14.52,30.48-.44-8.44,9.36-4.82,33.59-5.93,38.28-.93,3.94,16.19,15.51,26.52,25.14,9.27,10.28,10.97,6.98,9.14,19.96-.99,7.04-12.38,5.3-18.32,1.77,1.77,35.3,2.88,106.76-.83,111.52-6.54,8.38-28.01,.73-73.37,.17-7.03-.09,2.67-60.89,1.7-80.27-.53-10.57-44.17-9.32-44.32,.47-.29,18.5,.42,64.17-1.2,82.6-20.29-1.99-66.11,10.22-70.46,3.57-8.64-13.23,16.78-131.97,2.65-125.77-27.92,12.27-25.22-10.52-2.96-23.76"/><path id="Cocody-10" class="cls-3" d="M170.69,870.25c43.93-31.88,84.25-69.95,102.03-58.52,29.93,19.26,35.83,25.18,42.81,29.27,0,0,.37-8.15,2.06-23.99-22.85-13.32,43.18-14.52,30.48-.44-8.44,9.36-4.82,33.59-5.93,38.28-.93,3.94,16.19,15.51,26.52,25.14,9.27,10.28,10.97,6.98,9.14,19.96-.99,7.04-12.38,5.3-18.32,1.77,1.77,35.3,2.88,106.76-.83,111.52-6.54,8.38-28.01,.73-73.37,.17-7.03-.09,2.67-60.89,1.7-80.27-.53-10.57-44.17-9.32-44.32,.47-.29,18.5,.42,64.17-1.2,82.6-20.29-1.99-66.11,10.22-70.46,3.57-8.64-13.23,16.78-131.97,2.65-125.77-27.92,12.27-25.22-10.52-2.96-23.76"/><path id="Cocody-11" class="cls-3" d="M170.69,635.75c43.93-31.88,84.25-69.95,102.03-58.52,29.93,19.26,35.83,25.18,42.81,29.27,0,0,.37-8.15,2.06-23.99-22.85-13.32,43.18-14.52,30.48-.44-8.44,9.36-4.82,33.59-5.93,38.28-.93,3.94,16.19,15.51,26.52,25.14,9.27,10.28,10.97,6.98,9.14,19.96-.99,7.04-12.38,5.3-18.32,1.77,1.77,35.3,2.88,106.76-.83,111.52-6.54,8.38-28.01,.73-73.37,.17-7.03-.09,2.67-60.89,1.7-80.27-.53-10.57-44.17-9.32-44.32,.47-.29,18.5,.42,64.17-1.2,82.6-20.29-1.99-66.11,10.22-70.46,3.57-8.64-13.23,16.78-131.97,2.65-125.77-27.92,12.27-25.22-10.52-2.96-23.76"/><path id="Cocody-12" class="cls-3" d="M170.69,1354.88c43.93-31.88,84.25-69.95,102.03-58.52,29.93,19.26,35.83,25.18,42.81,29.27,0,0,.37-8.15,2.06-23.99-22.85-13.32,43.18-14.52,30.48-.44-8.44,9.36-4.82,33.59-5.93,38.28-.93,3.94,16.19,15.51,26.52,25.14,9.27,10.28,10.97,6.98,9.14,19.96-.99,7.04-12.38,5.3-18.32,1.77,1.77,35.3,2.88,106.76-.83,111.52-6.54,8.38-28.01,.73-73.37,.17-7.03-.09,2.67-60.89,1.7-80.27-.53-10.57-44.17-9.32-44.32,.47-.29,18.5,.42,64.17-1.2,82.6-20.29-1.99-66.11,10.22-70.46,3.57-8.64-13.23,16.78-131.97,2.65-125.77-27.92,12.27-25.22-10.52-2.96-23.76"/><path id="Cocody-13" class="cls-3" d="M170.69,166.76c43.93-31.88,84.25-69.95,102.03-58.52,29.93,19.26,35.83,25.18,42.81,29.27,0,0,.37-8.15,2.06-23.99-22.85-13.32,43.18-14.52,30.48-.44-8.44,9.36-4.82,33.59-5.93,38.28-.93,3.94,16.19,15.51,26.52,25.14,9.27,10.28,10.97,6.98,9.14,19.96-.99,7.04-12.38,5.3-18.32,1.77,1.77,35.3,2.88,106.76-.83,111.52-6.54,8.38-28.01,.73-73.37,.17-7.03-.09,2.67-60.89,1.7-80.27-.53-10.57-44.17-9.32-44.32,.47-.29,18.5,.42,64.17-1.2,82.6-20.29-1.99-66.11,10.22-70.46,3.57-8.64-13.23,16.78-131.97,2.65-125.77-27.92,12.27-25.22-10.52-2.96-23.76"/><path id="Cocody-14" class="cls-3" d="M170.69,401.26c43.93-31.88,84.25-69.95,102.03-58.52,29.93,19.26,35.83,25.18,42.81,29.27,0,0,.37-8.15,2.06-23.99-22.85-13.32,43.18-14.52,30.48-.44-8.44,9.36-4.82,33.59-5.93,38.28-.93,3.94,16.19,15.51,26.52,25.14,9.27,10.28,10.97,6.98,9.14,19.96-.99,7.04-12.38,5.3-18.32,1.77,1.77,35.3,2.88,106.76-.83,111.52-6.54,8.38-28.01,.73-73.37,.17-7.03-.09,2.67-60.89,1.7-80.27-.53-10.57-44.17-9.32-44.32,.47-.29,18.5,.42,64.17-1.2,82.6-20.29-1.99-66.11,10.22-70.46,3.57-8.64-13.23,16.78-131.97,2.65-125.77-27.92,12.27-25.22-10.52-2.96-23.76"/></g><g id="Text"><text class="cls-14" transform="translate(86.77 3329.65) scale(.87 1)"><tspan x="0" y="0">Cocody</tspan></text><text class="cls-14" transform="translate(511.15 3326.83) scale(.87 1)"><tspan x="0" y="0">Port-Bouet</tspan></text><text class="cls-14" transform="translate(1075.61 3326.83) scale(.87 1)"><tspan x="0" y="0">Adjame</tspan></text><text class="cls-14" transform="translate(1507.22 3326.83) scale(.87 1)"><tspan x="0" y="0">Koumassi</tspan></text><text class="cls-14" transform="translate(2053.86 3326.83) scale(.87 1)"><tspan x="0" y="0">Marcory</tspan></text><text class="cls-14" transform="translate(2501.15 3326.83) scale(.87 1)"><tspan class="cls-12" x="0" y="0">T</tspan><tspan class="cls-11" x="60.22" y="0">reichville</tspan></text><text class="cls-14" transform="translate(3081.42 3327.53) scale(.87 1)"><tspan x="0" y="0">Abobo</tspan></text><text class="cls-14" transform="translate(3476.15 3326.83) scale(.87 1)"><tspan class="cls-10" x="0" y="0">Y</tspan><tspan class="cls-13" x="64.24" y="0">opougon</tspan></text><text class="cls-14" transform="translate(4015.36 3329.65) scale(.87 1)"><tspan x="0" y="0">Attecoube</tspan></text></g></svg>