<?xml version="1.0" encoding="UTF-8"?>

<svg id="Population-Evicted" xmlns="http://www.w3.org/2000/svg" viewBox="0 0 3484.61 3336.27"><defs>
    <style>.cls-1{fill:none;stroke:#000;stroke-miterlimit:10;stroke-width:12px;}.cls-2{fill:#dfb6af;}</style>
    </defs><path class="cls-2" d="M1454.93,1659.58c107.74-76.12,220.51-145.04,337.07-206.8,33.23-17.61,66.77-34.63,100.58-51.09-66.1-26.89-132.21-53.79-198.31-80.68,1.14,4.23,2.01,8.47,2.61,12.82-1.61-11.96-3.21-23.93-4.82-35.89,1.02,8.63,.89,17.19-.18,25.81,1.61-11.96,3.21-23.93,4.82-35.89-1.89,13.44-5.92,26.33-11.1,38.85,4.54-10.75,9.07-21.5,13.61-32.25-16.24,38.24-41.42,71.96-63.25,107.07-22.08,35.52-42.71,71.93-61.76,109.16-23.68,46.3-44.41,93.94-64.08,142.06-15.36,37.58-29.08,75.84-40.99,114.66-13.1,42.69-23.98,86.04-32.57,129.86-5.63,17.94-6.43,35.89-2.41,53.83,.81,17.97,6.15,34.7,16.02,50.19,7.04,9.11,14.07,18.21,21.11,27.32,12.23,13.16,26.71,22.47,43.45,27.91,10.53,6.11,21.88,9.18,34.07,9.22,17.94,4.02,35.89,3.21,53.83-2.41,10.75-4.54,21.5-9.07,32.25-13.61,20.29-12,36.43-28.15,48.43-48.43,26.62-35.77,53.57-71.3,80.82-106.59-7.04,9.11-14.07,18.21-21.11,27.32,36.11-46.73,72.76-93.03,109.95-138.9,36.35-44.83,72.79-89.75,110.7-133.28,16.73-19.21,34.51-37.57,54.66-53.24-9.11,7.04-18.21,14.07-27.32,21.11,14.27-10.94,29.57-20.34,46.14-27.38-10.75,4.54-21.5,9.07-32.25,13.61,13.38-5.53,27.25-9.38,41.59-11.42-11.96,1.61-23.93,3.21-35.89,4.82l1.86-.24c-38.86-67.71-77.71-135.42-116.57-203.14-55.4,129.51-111.27,259.07-158.36,391.89-41.93,118.27-76.94,239.62-95.03,364-11.59,79.72-19.65,159.42-17.28,240.06-.7,18.59,3.17,35.92,11.63,52.01,5.44,16.74,14.75,31.22,27.91,43.45l27.32,21.11c15.5,9.87,32.23,15.21,50.19,16.02,11.96,3.21,23.93,3.21,35.89,0,17.97-.81,34.7-6.15,50.19-16.02,9.11-7.04,18.21-14.07,27.32-21.11,16.73-16.84,28.3-36.7,34.72-59.57,13.2-36.62,27.37-72.88,42.48-108.75-4.54,10.75-9.07,21.5-13.61,32.25,35.93-85.08,77.11-167.91,122.95-248.08,13.13-22.96,26.65-45.7,40.51-68.23h-233.14c1.64,3.51,3.22,7.05,4.74,10.62-4.54-10.75-9.07-21.5-13.61-32.25,11.51,27.56,18.56,56.57,22.59,86.12-1.61-11.96-3.21-23.93-4.82-35.89,6.63,50.3,4.91,101.13,3.87,151.71-.52,25.09-.89,50.19,0,75.28,1.29,36.39,5.61,72.92,12.09,108.71,7.06,38.94,21.54,75.39,38.39,111.14,12,20.29,28.15,36.43,48.43,48.43,15.5,9.87,32.23,15.21,50.19,16.02,17.94,4.02,35.89,3.21,53.83-2.41,22.87-6.41,42.73-17.99,59.57-34.72,11.85-11.9,23.09-24.39,33.55-37.53,16.84-21.15,33.8-42.51,48.15-65.49,8.19-13.11,15.61-26.69,22.13-40.71,11.21-24.11,21.87-48.82,29.89-74.23,5.63-17.94,6.43-35.89,2.41-53.83-.81-17.97-6.15-34.7-16.02-50.19-8.48-15.73-20.07-28.36-34.77-37.88-13.04-11.93-28.34-19.99-45.91-24.16-11.96-1.61-23.93-3.21-35.89-4.82-24.37,.08-47.08,6.22-68.14,18.43-9.11,7.04-18.21,14.07-27.32,21.11-16.73,16.84-28.3,36.7-34.72,59.57-3.19,10.11-6.84,20.06-10.91,29.85,4.54-10.75,9.07-21.5,13.61-32.25-12.93,30.57-30.01,59.12-50.18,85.46,7.04-9.11,14.07-18.21,21.11-27.32-11.72,15.16-24.39,29.51-37.91,43.09,70.68,9.11,141.35,18.21,212.03,27.32-1.65-3.51-3.24-7.04-4.78-10.6,4.54,10.75,9.07,21.5,13.61,32.25-11.6-27.52-18.73-56.51-22.82-86.05,1.61,11.96,3.21,23.93,4.82,35.89-6.73-50.27-5.05-101.1-4-151.66,.52-25.09,.91-50.2,.05-75.29-1.24-36.42-5.56-72.91-11.97-108.75-6.98-39.02-21.4-75.33-38.17-111.21-12-20.29-28.15-36.43-48.43-48.43-21.06-12.21-43.77-18.36-68.14-18.43-48.42,0-91.47,26.08-116.57,66.86-32.93,53.51-63.86,108.26-92.5,164.19-32.96,64.38-62.24,130.36-89.92,197.16-13.13,31.69-25.51,63.69-37.13,95.96,88.39,11.96,176.79,23.93,265.18,35.89-1.86-63.28,2.03-126.57,10.38-189.3-1.61,11.96-3.21,23.93-4.82,35.89,11.57-85.83,31.33-170.36,56.01-253.32,25.25-84.9,55.58-168.22,88.14-250.57,18.69-47.27,38.14-94.24,57.9-141.08l-13.61,32.25c13.18-31.22,26.49-62.38,39.81-93.54,12.21-21.06,18.36-43.77,18.43-68.14-.08-24.37-6.22-47.08-18.43-68.14-12-20.29-28.15-36.43-48.43-48.43-21.06-12.21-43.77-18.36-68.14-18.43-20.88,2.72-42.37,4.38-62.67,10.49-19.27,5.8-37.98,14.26-56.1,22.81-26.25,12.39-49.39,31.42-71.66,49.57-29.6,24.11-53.73,53.96-78.15,83.07-60.71,72.35-120.09,145.82-178.06,220.39-39.01,50.18-77.68,100.6-115.63,151.59,82.25,34.68,164.5,69.35,246.75,104.03,13.53-69.08,32.84-136.96,57.34-202.94,7.12-19.16,14.68-38.16,22.62-56.99-4.54,10.75-9.07,21.5-13.61,32.25,22.85-53.94,49-106.46,78.16-157.27,14.69-25.6,30.17-50.73,46.25-75.47,15.56-23.95,31.53-47.98,43.07-74.2,10.28-23.36,21.96-47.4,26.03-72.94,2.74-17.21,6.79-37.77,5.91-56.19-.9-18.73-3.17-37.89-8.08-56.06-6.41-22.87-17.99-42.73-34.72-59.57-12.23-13.16-26.71-22.47-43.45-27.91-16.09-8.45-33.43-12.33-52.01-11.63-24.37,.08-47.08,6.22-68.14,18.43-119.65,58.26-235.84,123.65-347.25,196.45-30.5,19.93-60.64,40.42-90.4,61.45-15.73,8.48-28.36,20.07-37.88,34.77-11.93,13.04-19.99,28.34-24.16,45.91-5.63,17.94-6.43,35.89-2.41,53.83,.81,17.97,6.15,34.7,16.02,50.19,7.04,9.11,14.07,18.21,21.11,27.32,16.84,16.73,36.7,28.3,59.57,34.72,11.96,1.61,23.93,3.21,35.89,4.82,24.37-.08,47.08-6.22,68.14-18.43h0Z"/><path class="cls-1" d="M3316.84,1139.69c52.4,47.68,89.71,111.71,105.35,180.81,3.89,17.2,6.39,35.67,0,52.11-5.23,13.45-15.81,24-26.28,33.93-75.61,71.69-163.49,134.63-264.61,159.75-41.51,10.31-84.33,14.03-126.96,17.43-204.44,16.28-420.3,23.71-603.3-68.87-56.12-28.39-109.48-67.71-138.6-123.45-29.12-55.74-28.37-130.31,14.48-176.34,31.4-33.73,78.46-46.95,123.01-58.72,1.28,13.57,2.57,27.15,3.85,40.72,26.39,10.6,60.17-6.23,67.61-33.68-10.61,33.73,13.15,74.02,47.81,81.05,34.65,7.03,72.24-20.8,75.62-56,25.78,23.88,64.62,35.85,97.28,22.86,32.65-12.99,52.98-54.87,36.72-86.02-7.79-14.93-22.56-26.38-26.09-42.84-3.32-15.46,4.17-30.89,7.66-46.31s.36-35.53-14.59-40.67c27.57-9.85,45.75-40.95,40.81-69.81-4.94-28.86-32.44-52.14-61.72-52.25,18.7-72.5-21.88-155.61-90.54-185.46,51.08-61.12,59.69-154.3,20.68-223.75,45.37,9.65,92.32-16.62,120.57-53.41,28.25-36.79,41.63-82.53,54.44-127.11,45.39,95.39,147.32,161.1,252.94,163.06,4.08,76.15-6.2,153.05-30.12,225.46,9.68,.43,18.46-9.37,16.96-18.94,11.56,35.65,9.73,75.48-5.05,109.92-15.42,35.92-43.88,65.23-58.08,101.65-14.2,36.42-6.63,87.43,30.19,100.56-22.03,28.23-42.06,59.66-47.31,95.08s7.63,75.54,38.64,93.44c-27.99,31.37-18.2,88.79,19.62,107.17s90.4-12.13,91.15-54.17c25.98,16.73,52.96,33.86,83.48,38.67,30.53,4.82,65.79-6.04,80.08-33.45,3.87-7.41,6.64-16.35,14.05-20.22,10.55-5.52,22.69,2.57,34.18,5.71,33.26,9.08,64.05-28.83,61.88-63.24s-25.36-63.39-47.48-89.84c18.06-38.58,36.3-77.74,43.47-119.72,7.17-41.98,2.04-87.87-23.28-122.13-7.07-9.57-15.78-18.46-19.03-29.9-4.19-14.74,1.58-30.26,2.81-45.54,4.55-56.33-50.2-97.84-73.25-149.43-28.23-63.2-8.4-142.89-46.83-200.46-13.12-19.65-32.52-35.63-40.12-58.01-5.03-14.8-4.34-31.05-9.18-45.91-10.34-31.76-43.07-50.33-74.58-61.4s-65.66-18.34-91.21-39.85c-10.59-8.92-19.54-20.18-31.98-26.27-19.12-9.36-41.88-4.48-62.96-7.42-36.88-5.15-69.57-34.42-106.51-29.8-28.11,3.51-52.83,26.52-80.93,22.9-15.3-1.97-31.36-11.68-45-4.46-6.76,3.58-10.91,10.57-14.47,17.34-21.72,41.34-34.04,87.59-35.76,134.26-85.92,60.2-138.59,165.08-135.58,269.95,.33,11.36,1.23,22.99-2.03,33.88-4.45,14.88-15.99,26.34-25.36,38.72-19,25.1-29.77,55.31-40.26,85-10.43,29.52-20.86,59.03-31.29,88.55-16.2,45.84-32.53,95.58-18.26,142.05-40.94,34.37-44.31,104.5-6.87,142.65-21.02,5.1-37.91,24.15-40.45,45.63s9.43,43.95,28.68,53.81"/><path class="cls-1" d="M1590.79,1889.02c18.24,29.94,1.54,72.7-26.74,91.89-28.28,19.2-63.78,20.77-97.33,20.1l-10.81-34.84c-10.36,16.06-34.68,17.04-48.51,4.26-13.83-12.78-17.28-35.25-11.51-53.73-18.96,15.83-47.97,16.21-67.29,.87-19.32-15.34-27.22-45.01-18.32-68.84-43.67-3.3-62.33-59.55-70.52-105.27-4.05-22.59-8.11-45.77-4.39-68.42,4.1-24.99,17.46-47.88,18.75-73.21,.84-16.5-3.54-33.15-.97-49.44,2.57-16.29,16.57-32.81,31.52-28.29-12.82-30.12-25.4-66.44-8.97-94.52,4.35-7.43,10.52-13.69,13.8-21.72,6.27-15.35,.62-33.01,1.58-49.71,.96-16.7,16.68-35.44,30.06-26.64-22.7-32.24,1.11-87.2,38.91-89.83-4.76-35.48,26.47-71.21,60.11-68.76,4.77-32.87,33.41-59.97,64.68-61.18,11.32-.44,22.79,2.12,33.92-.17,14.38-2.96,26.15-13.53,39.28-20.43,32.57-17.11,71.28-10.83,106.86-3.07,30.5,6.65,61.83,14.14,92.48,8.33,15.22-2.88,33.08-8.27,44.47,2.85,10.89-13.8,29.41-16.83,46.23-18.93,23.13-2.89,47.21-5.68,69.21,2.44,22,8.13,41.17,30.65,38.42,55.23,23.8-4.43,48.65-8.8,71.75-1.31,23.11,7.49,43.61,30.81,40.43,56.26,51.95-3.52,95.94,62.06,75.88,113.13,43.64,16.86,64.37,80.2,39.99,122.21,25.77,8.07,46.54,32.03,52.01,59.99,5.47,27.96-4.6,58.73-25.22,77.05,40,7.64,58.97,69.46,30.91,100.7-8.56,9.53-20.72,17.3-22.74,30.29-2.03,13.05,7.24,24.61,12.04,36.81,7.08,17.98,3.94,40.03-7.83,54.97-10.31,13.09-26.49,21-33.46,36.38-6.39,14.1-3.37,30.98-7.27,46.07-6.74,26.11-36.92,42.13-60.6,32.17,5.24,43.47-46.7,81.05-82.82,59.91,9.02,19.78-8.66,43.01-28.41,49.52-19.75,6.51-41.15,2.93-61.58,6.27-10.68,1.75-21.8,5.35-31.99,1.54-12.63-4.72-19.32-19.02-24.75-32.03-11.9-28.53-24.08-58.91-20.16-89.84,5.93-46.82,45.71-78.91,70.86-117.85,19.95-30.89,31.18-68.06,31.88-105.52,4.62,6.93,13.39,4.84,22.37,1.7,7.05-2.46,11.6-8.89,11.4-15.89-1.52-54.76,3.13-70.4,7.14-90.27,3.01-14.89,10.87-71.77-11.72-59.64-4.35,2.34-17.62,10.76-20.54,14.31,1.39-88.21-34.82-187.89-113.69-215.36-26.34-9.17-54.6-9.26-82.32-9.17-47.15,.14-94.87,.59-140.49,13.25-45.62,12.66-89.62,38.99-115.3,81.02-30.09,49.24-31.1,111.67-31.12,170.39,.53-33.2-53.39-95.71-57.92-13.17-3.07,39.33,8.42,32.15,12.12,80.23,2.81,36.48,17.38,83.15,51.81,82.49-5.97,43.65,30.81,103.48,30.81,103.48,14.1,13.49,31.63,22.6,45.02,36.88,24.47,26.1,31.56,65.95,28.53,102.66-3.03,36.71-14.78,71.87-22.93,107.68-2.2,9.66-4.14,19.84-1.7,29.43,3.06,12.04,12.44,20.98,21.93,28.32,80.5,62.2,203.57,50.69,272.61-25.5,11.84-13.06,22.21-27.72,35.31-39.34,35.23-31.25,84.9-36.2,130.66-32.59,90.69,7.14,188.72,52.9,219.21,143.97,22.61,67.53,1.47,145.3-40.66,201.25-42.14,55.96-102.49,93.11-164.33,121.66-157,72.48-333.33,96.91-502.57,69.63-56.58-9.12-113.04-24.17-163.22-53.41-50.18-29.24-93.91-73.79-115.72-130.03-32.57-83.98-11.55-183.62,37-258.37,8.89-13.69,18.76-26.87,31-37.24,14.27-12.1,31.23-19.97,48.13-27.29,62.51-27.1,127.15-48.66,193.02-64.37"/><path class="cls-1" d="M933.99,988.72c76.05-1.1,154.01,17.4,215.21,62.11,61.2,44.71,103.37,117.67,100.62,192.92-3.65,100.2-81.97,182.72-166.98,237.21-211.49,135.55-494.63,152.51-722.1,45.27-116.04-54.71-222.06-146.54-256.72-269.07-9.19-32.49-13.09-67.36-4.1-99.91,20.15-72.98,96.24-113.96,165.12-146.73,14.22-6.77,29.36-13.7,45.07-12.19,19.5,1.88,35.13,16.21,48.97,29.95,110.04,109.31,208.15,230.38,292.07,360.43,47.48-109.6,121.92-207.64,215.06-283.26,13.15-10.68,27.07-21.38,34.97-36.29,15.45-29.16,2.72-66.68-20.93-89.83-23.65-23.15-55.85-35.22-87.04-46.66,3.2-83.55,28.82-166.16,73.52-237.1,.22,.14,.43,.27,.65,.4,18.48,11.22,42.49-.25,45.34-21.69,8.07-60.8,8.57-122.59,1.48-183.51-1.05-9.06-13.24-11.29-17.39-3.17-7.49,14.64-11.99,30.79-13.01,47.18-5.19-20.93-6.85-46.52,6.49-68.58,70.96-117.28,2.98-286.11-123.05-341.99-126.02-55.89-283.55-8.19-375.35,93.94-23.74,26.4-44.28,57.12-50.69,91.89-15.08,81.86,50.48,162.05,37.66,244.29-2.4-19.82-11.34-30.37-25.33-38.47-10.45-6.05-23.25,2.69-21.32,14.61,8.9,55.04,15.93,100.4,33,151.01,5.42,16.08,26.75,19.29,36.6,5.48h0c4.24,33.55,23.76,62.93,41.11,92.04,17.35,29.12,33.49,61.52,29.87,95.14-3.62,33.62-35.28,66.16-68.58,58.69,23.33,48.63,77.95,72.63,119.92,106.87,41.97,34.24,41.31,138.09,3.15,176.45,22.25-58.24,148-105.83,182.54-53.8,6.73,10.13,12.29,22.6,23.79,26.77,11.5,4.17,26.77-10.98,17.57-18.99"/><path class="cls-1" d="M977.92,2875.5c74.46,9.32,147.54,27.71,216.68,54.53,9.07,3.52,18.3,7.32,25.2,13.74,8.59,8,12.61,19.29,13.74,30.43,4.5,44.56-32.13,83.25-69,112.87-37.17,29.86-77.21,56.76-119.5,80.3-28.12,15.65-57.55,29.93-89.3,38-30.38,7.71-62.12,9.55-93.6,11.35-100.1,5.72-200.52,11.45-300.61,5.72-45.44-2.6-90.7-7.55-135.59-14.51-84.85-13.14-174.04-36.57-229.38-96.56-12.12-13.14-22.53-28.33-25.2-45.31-2.95-18.72,3.74-37.47,10.33-55.4,12.15-33.04,26.01-68.27,57.06-88.65,14.7-9.65,32.14-15.13,49.46-19.96,42.73-11.9,86.53-20.61,130.82-26.02,16.54-2.02,33.86-3.5,49.5,1.79,10.29,3.48,45.78-2.12,56.5,.06,10.72,2.17-1.89,9.84,0,0,8.74,33.54,49.06,50.87,85.51,60.23,89.73,23.05,185.51,26.35,276.91,9.56,23.97-4.4,48.67-10.66,66.69-25.71,18.02-15.04,26.96-41.24,14.15-60.2-26.99,3.25-53.37-12.25-68.8-32.67-15.42-20.42-40.19-25.62-46.55-49.71-4.22-16.01,9.69-51.53,5.46-67.54-1.65-6.28-3.31-12.89-1.37-19.1,2.41-7.73,9.79-13.16,16.6-18.27,71.09-53.46,120.61-130.15,137.34-212.68,.53,39.44,1.07,78.87,1.6,118.31,.16,11.91,.62,24.69,8.34,34.31,7.72,9.62,25.62,13.19,33.6,3.75,.84-45.81-6.39-91.74-21.32-135.5-4.41-12.93-9.55-26.59-5.89-39.71,2.97-10.67,11.32-19.28,18.69-28.02,38.08-45.15,54.38-101.99,69.82-157.15,12.89-46.08,25.78-92.15,38.67-138.23,5.55-19.84,11.14-40.14,9.16-60.52-2.21-22.68-13.59-43.65-24.78-64.01-32.17-58.53-64.6-117.45-108.12-169.55-20.43-24.45-43.93-47.78-74.01-61.73-28.04-13-59.93-17-91.18-20.26-85.6-8.92-171.72-13.68-257.87-14.25-26.97-.18-54.4,.12-80.14,7.44-27.89,7.94-52.31,23.74-74.19,41.36-45.66,36.76-83.78,85.69-88.22,141.02-.36,4.43-.22,9.5,3.42,12.47,3.64,2.96,11.36,.44,10.09-3.85-28.69,43.14-51.6,89.93-62.32,139.41-22.76,105.06,11.9,216.15,77.91,304.81,10.1,13.57,20.97,26.79,28.81,41.55,6.56,12.35,10.89,25.64,13.42,39.17,6.53,34.98,.72,71.78-16.35,103.68-7.63,14.25-17.72,28.64-16.51,44.45,1.21,15.81,21.64,30.77,35.79,21.53,17.11-56.29,20.47-116,9.75-173.59,17.52,86.74,60.32,135.38,124,201.86,18.1,18.9,45.13,49.75,40.08,74.4-6.48,31.6-8.44,90.07-43.45,94.33-4.54,33.67-69.28,42.5-97.47,64.7"/><path class="cls-1" d="M3245.6,2999.35c5.88-69.81-47.89-131.67-108.39-156.57-60.5-24.9-127.09-22.55-191.71-26.47-7.28-.44-14.9-1.08-21.06-5.29-5.43-3.71-9.07-9.76-12.54-15.62-15.07-25.44-30.13-50.89-45.2-76.33-11,10.93-22.01,21.87-33.01,32.8-7.52-38.03-15.04-76.06-22.56-114.1-1.6-8.11-3.21-16.51-1.64-24.62,1.77-9.11,7.3-16.73,12.43-24.19,40.05-58.26,64.62-128.85,70.04-201.24,8.67,12.11,27.16,10.31,37.94,.38,10.78-9.92,15.77-25.17,20.32-39.67,7.3-23.28,14.6-46.56,21.9-69.84,5.37-17.12,12.67-36.24,13.61-64.7,1.23-37.38-28.77-18.2-25.43-28.49,11.4-35.14,11.26-89.12,12.28-138.99,1.97-96.56-56.15-184.48-127.91-241.82-37.89-30.27-80.46-54.34-126.2-66.43-42.82-11.32-88.02-11.91-131.08-1.71-16.68,11.45-33.35,22.9-50.03,34.35-12.95,8.89-30.72,17.55-42.29,6.66,3.17,11.81-7.28,22.81-17.69,27.73-10.41,4.92-22.56,7.65-29.63,17.27-5.18,7.04-6.52,16.41-9.5,24.81-7.29,20.58-25.85,35.93-46.1,38.13,5.46,29.24,9.66,63.68-9.32,85.29-7,7.97-16.64,13.32-21.92,22.71-5.28,9.39-2.28,25.4,7.86,26.07-15.79,10.29-16.57,34.33-15.47,54.25,2.01,36.38,4.02,72.75,6.03,109.13,1.9,7.48,3.8,14.96,5.7,22.45-11.83-4.22-24.88,5.53-29.54,18.04-4.67,12.51-2.99,26.65-.42,39.85,7.57,38.82,22.41,75.96,43.34,108.52,11.42,17.76,34.64,35.21,49.02,20.18,10.17,78.08,38.21,153.36,80.94,217.21,10.38,52.29,2.99,108.49-20.46,155.56-8.69-13.39-17.38-26.79-26.06-40.18-13.83,36.17-32.38,70.22-54.93,100.82-74.41-9.04-151.16,5.9-218,42.44-35.14,19.21-69.72,47.42-80.53,88.41-14.8,56.14-31.13,129.35,13.39,162.26,74.88,55.34,145.42,73.01,189.89,75.72,82.99,5.05,326.22-.25,409.23,4.26,128.62,6.99,344.93,9.9,423.85-31.25,43.54-22.7,80.26-120.45,100.85-167.8"/></svg>